<svg width="470" height="251" viewBox="0 0 470 251" fill="none" xmlns="http://www.w3.org/2000/svg">
<rect width="470" height="251" fill="#0610AC"/>
<path d="M252.842 139.955C252.842 147.815 247.374 152.599 236.78 152.599C227.827 152.599 223.589 150.344 223.589 150.344C223.589 150.344 223.726 149.045 223.726 144.876C223.726 140.297 223.589 138.178 223.589 138.178C226.802 143.509 230.629 144.74 234.866 144.74C238.694 144.74 240.266 143.578 240.266 141.664C240.266 139.819 239.309 139.135 237.122 138.11L232.064 135.718C226.87 133.257 223.589 130.182 223.589 123.894C223.589 116.307 228.715 111.728 238.694 111.728C248.126 111.728 251.27 113.915 251.27 113.915C251.27 113.915 251.133 115.419 251.133 119.793C251.133 124.099 251.27 126.013 251.27 126.013C248.672 121.912 245.802 119.52 240.881 119.52C237.327 119.52 235.755 120.408 235.755 122.322C235.755 124.167 236.985 124.919 239.719 126.149L244.503 128.336C249.698 130.729 252.842 133.804 252.842 139.955Z" fill="white"/>
<path d="M221.238 150.891L221.853 152.053C221.853 152.053 219.119 151.916 212.626 151.916C206.065 151.916 203.331 152.053 203.331 152.053L203.946 150.891C205.04 148.909 205.655 148.43 205.655 133.531C205.655 125.329 205.381 123.279 204.766 122.049C204.288 121.023 203.057 120.066 200.802 120.066C196.359 120.066 195.403 123.894 195.403 123.894V133.599C195.403 148.43 196.086 148.909 197.18 150.891L197.795 152.053C197.795 152.053 195.061 151.916 188.568 151.916C182.007 151.916 179.273 152.053 179.273 152.053L179.888 150.891C180.981 148.909 181.597 148.362 181.597 133.462V130.524C181.597 118.7 180.981 116.786 179.888 114.804L179.273 113.642L195.198 111.933L194.788 123.347C196.838 111.797 204.903 111.66 207.773 111.66C212.626 111.66 215.907 113.163 217.684 116.376C219.324 119.246 219.529 122.527 219.529 130.524V133.462C219.529 148.362 220.144 148.909 221.238 150.891Z" fill="white"/>
<path d="M176.003 103.39C176.003 107.901 172.586 108.858 168.075 108.858C163.7 108.858 160.078 107.969 160.078 103.663C160.078 99.1524 163.495 98.1956 168.006 98.1956C172.381 98.1956 176.003 99.0841 176.003 103.39ZM177.301 152.053C177.301 152.053 174.568 151.916 168.075 151.916C161.513 151.916 158.78 152.053 158.78 152.053L159.395 150.891C160.488 148.909 161.103 148.362 161.103 133.462V130.524C161.103 118.7 160.488 116.786 159.395 114.804L158.78 113.642L175.593 111.933C175.593 111.933 174.978 115.761 174.978 130.455V133.462C174.978 146.107 175.251 148.157 176.686 150.891L177.301 152.053Z" fill="white"/>
<path d="M156.927 131.549C156.927 145.491 149.682 152.805 136.218 152.805C122.958 152.805 115.919 145.56 115.919 132.916C115.919 118.973 123.163 111.66 136.628 111.66C149.887 111.66 156.927 118.905 156.927 131.549ZM142.506 131.89C142.506 121.843 140.865 119.588 136.354 119.588C131.775 119.588 130.34 123.21 130.34 132.574C130.34 142.621 131.98 144.876 136.491 144.876C141.07 144.876 142.506 141.254 142.506 131.89Z" fill="white"/>
<path d="M106.058 144.398C112.824 144.398 114.943 140.844 115.148 140.502C115.148 145.902 111.594 152.805 100.659 152.805C87.1261 152.805 82.4102 143.988 82.4102 133.121C82.4102 119.11 89.2448 111.728 102.231 111.728C111.184 111.728 114.465 114.394 114.465 114.394C114.465 114.394 114.328 116.239 114.328 120.066C114.328 124.099 114.465 127.311 114.465 127.311C110.569 120.682 108.04 119.861 104.896 119.861C98.3349 119.861 96.8313 125.739 96.8313 131.89C96.8313 138.452 98.3349 144.398 106.058 144.398Z" fill="white"/>
<path d="M387.59 123.962C387.59 128.952 386.086 135.991 371.597 135.991C367.838 135.991 365.24 135.513 365.24 135.513C365.24 137.7 366.266 144.671 375.492 144.671C384.719 144.671 386.906 141.117 387.111 140.776C387.111 146.585 382.737 152.805 370.913 152.805C356.082 152.805 351.024 144.056 351.024 132.779C351.024 119.861 356.697 111.66 370.025 111.66C374.877 111.66 387.59 111.865 387.59 123.962ZM374.536 123.552C374.536 121.092 373.647 118.289 370.161 118.289C364.899 118.289 364.83 122.937 364.83 128.815C364.83 128.815 365.924 129.088 368.589 129.088C372.554 129.088 374.536 127.926 374.536 123.552Z" fill="white"/>
<path d="M348.841 150.891L349.456 152.053C349.456 152.053 346.722 151.916 340.229 151.916C333.668 151.916 330.934 152.053 330.934 152.053L331.549 150.891C332.643 148.909 333.258 148.43 333.258 133.531C333.258 125.329 332.985 123.279 332.369 122.049C331.891 121.023 330.661 120.066 328.405 120.066C323.963 120.066 323.006 123.894 323.006 123.894V133.462C323.006 148.362 323.689 148.909 324.783 150.891L325.398 152.053C325.398 152.053 322.664 151.916 316.171 151.916C309.61 151.916 306.808 152.053 306.808 152.053L307.423 150.891C308.516 148.909 309.132 148.43 309.132 133.531C309.132 125.329 308.858 123.279 308.243 122.049C307.765 121.023 306.534 120.066 304.279 120.066C299.836 120.066 298.948 123.894 298.948 123.894V133.462C298.948 148.294 299.563 148.909 300.657 150.891L301.272 152.053C301.272 152.053 298.538 151.916 292.045 151.916C285.484 151.916 282.75 152.053 282.75 152.053L283.365 150.891C284.458 148.909 285.074 148.362 285.074 133.462V130.524C285.074 118.7 284.458 116.786 283.365 114.804L282.75 113.642L298.743 111.933L298.333 123.347C300.383 111.797 308.448 111.66 311.319 111.66C316.171 111.66 319.452 113.232 321.229 116.376C322.596 118.768 322.733 121.707 322.733 121.707C325.056 111.797 332.643 111.591 335.377 111.591C340.229 111.591 343.51 113.163 345.287 116.307C346.927 119.178 347.132 122.459 347.132 130.455V133.462C347.132 148.362 347.747 148.909 348.841 150.891Z" fill="white"/>
<g filter="url(#filter0_d_97_33001)">
<path d="M277.795 142.713C277.795 147.477 273.933 151.34 269.168 151.34C264.403 151.34 260.541 147.477 260.541 142.713C260.541 137.948 264.403 134.086 269.168 134.086C273.933 134.086 277.795 137.948 277.795 142.713Z" fill="#0069FF"/>
<path d="M269.168 133.817C274.081 133.817 278.063 137.8 278.063 142.713C278.063 147.626 274.081 151.608 269.168 151.608C264.255 151.608 260.272 147.626 260.272 142.713C260.272 137.8 264.255 133.817 269.168 133.817Z" stroke="#00084F" stroke-width="0.53679"/>
</g>
<defs>
<filter id="filter0_d_97_33001" x="258.93" y="133.549" width="19.4017" height="19.4012" filterUnits="userSpaceOnUse" color-interpolation-filters="sRGB">
<feFlood flood-opacity="0" result="BackgroundImageFix"/>
<feColorMatrix in="SourceAlpha" type="matrix" values="0 0 0 0 0 0 0 0 0 0 0 0 0 0 0 0 0 0 127 0" result="hardAlpha"/>
<feOffset dx="-1.07358" dy="1.07358"/>
<feComposite in2="hardAlpha" operator="out"/>
<feColorMatrix type="matrix" values="0 0 0 0 0 0 0 0 0 0.027451 0 0 0 0 0.282353 0 0 0 1 0"/>
<feBlend mode="normal" in2="BackgroundImageFix" result="effect1_dropShadow_97_33001"/>
<feBlend mode="normal" in="SourceGraphic" in2="effect1_dropShadow_97_33001" result="shape"/>
</filter>
</defs>
</svg>
