<svg fill="none" height="40" viewBox="0 0 115 40" width="115" xmlns="http://www.w3.org/2000/svg"><g fill="#000"><path clip-rule="evenodd" d="m58.3713 4.48426c-2.6281 2.06951-3.1889 9.87024-1.8268 25.41064.4312 4.9194.1135 4.876-2.2062-.3013-.8198-1.8295-2.7821-6.2093-4.3606-9.7328-3.4618-7.7266-3.8597-8.2603-5.5204-7.4006-2.6817 1.3885-2.3652 21.3591.3578 22.6015 1.3993.6384 1.7532-.3211 1.2637-3.425-.8143-5.1658-1.1844-13.0875-.6908-14.7928.1238-.4278.8247.9388 3.0957 6.0368 5.9058 13.2567 5.8211 13.1192 8.069 13.1192 2.5434 0 3.0621-1.5143 2.4885-7.2648-1.0612-10.6393-.5577-20.5174 1.1451-22.45902 1.366-1.55749-.1777-3.08147-1.815-1.79182zm47.3467 6.25264c-4.798.9789-9.3567 3.4175-10.4897 5.6112-1.4534 2.8139-1.6759 12.8374-.3433 15.453 1.4411 2.8281 14.908 3.4702 15.204.7249.141-1.3069.036-1.3301-6.023-1.3387-7.6901-.0111-7.2088.2481-7.3936-3.9801-.1203-2.756-.1203-2.756.833-3.1593 1.0258-.4339 5.1026-1.4516 7.1016-1.7726 1.031-.1656 1.263-.3036 1.46-.8671.679-1.9485-2.204-2.1284-7.4748-.4667-1.938.6111-1.8696.6788-1.5228-1.5077.5017-3.1638 4.4026-5.4969 10.6126-6.3482 2.524-.3462 2.682-.4105 2.874-1.1749.36-1.4397-1.419-1.8716-4.838-1.1738zm-29.285 3.2581c-1.1222.4017-1.2204 1.8877-.6096 9.239.901 10.843 1.2229 12.2603 2.615 11.5142.7462-.3996.777-.7066.4861-4.8513-.1497-2.1319-.3355-6.26-.413-9.1737-.1668-6.2689-.4297-7.3587-1.6594-6.8797-.0276.0106-.2161.0788-.4191.1515zm-8.1212 6.5902c-.3383.1878-1.2511.4699-2.0283.6266-7.7269 1.5587-6.8343 12.8879 1.0174 12.9098 7.297.0205 9.517-8.6552 3.3735-13.1838-1.0723-.7902-1.468-.8493-2.3626-.3526zm17.0311.3583c-6.9955 2.4194-5.8561 12.3722 1.4652 12.797 3.3777.1958 6.3963-1.8167 5.2813-3.5208-.5163-.789-1.1456-.7942-2.068-.017-2.8348 2.3881-6.6945.7443-6.6967-2.8519-.0023-3.2206 3.3589-5.1009 6.5697-3.6752.7125.3163.8355.306 1.292-.1077 2.0862-1.8902-2.2869-3.8544-5.8435-2.6244zm-15.0911 3.1384c2.0559 1.4416 1.6252 5.7975-.69 6.9802-3.8731 1.9781-7.9049-2.3967-5.3273-5.7805 1.167-1.5319 4.575-2.2115 6.0173-1.1997z" fill-rule="evenodd"/><path d="m11.5906 4.71876c.7606-.00165 1.3693.20169 1.9419.42512 1.1364.46425 2.1224 1.10845 3.0457 1.81031 1.0196.78639 1.9575 1.65654 2.8136 2.60004-.0111-.02987-.0222-.05978-.0332-.08981-.1526-.42447-.3055-.86426-.4098-1.37617-.0657-.47664-.2887-1.24648.4287-2.05488.3273-.33733.8515-.67166 1.4759-.68254.6219-.01053 1.0926.24428 1.4416.48754.6968.50993 1.1182 1.09332 1.514 1.66644.7184 1.07803 1.2653 2.19998 1.7626 3.32819.0041-.1485.0126-.3009.0282-.4599.0465-.3114.0322-.61157.3459-1.14454.0783-.11963.1645-.23292.2618-.33863.1073-.11647.2397-.23401.39-.33043.3209-.21815.8115-.32508 1.2032-.2491.7961.1688 1.1364.57861 1.4497.9009.6005.6897.9452 1.3632 1.2771 2.0607.6381 1.3857 1.0703 2.8128 1.406 4.244.6577 2.8753.9281 5.8382.6621 8.8286-.3178 3.8215-2.1158 7.7406-5.345 10.19-2.8057 2.1781-6.5207 3.1152-10.0402 2.6347-.4209-.0546-.7999-.2743-1.0531-.615-.2532-.3404-.3598-.7739-.2969-1.201.0629-.427.2898-.8115.6304-1.0645.3406-.2533.7668-.3545 1.1855-.2854 2.7145.4651 5.6062-.1578 7.8497-1.7799 2.5734-1.8216 4.1653-4.8737 4.5552-8.1505.3278-2.6508.1772-5.4168-.3399-8.086-.2616-1.3254-.6213-2.6566-1.1273-3.8629-.2535-.5981-.5518-1.1792-.8856-1.5857-.0573-.0762-.1238-.1393-.1789-.1864-.0173.0626-.0338.1481-.0464.2398-.0267.1921-.04.4155-.0456.6436-.0106.4541.0074.9381.0354 1.4212.1139 1.9368.2039 3.9256.3864 5.9506.0629.7626-1.1154.9288-1.2657.1785-.0051-.0258-.0105-.0524-.0162-.0799-.5514-2.3737-1.6395-4.6693-2.5978-6.9162-.498-1.1435-1.0505-2.28111-1.7076-3.26049-.3249-.48147-.7054-.94736-1.0545-1.19312-.1713-.12362-.3078-.15658-.3377-.15118-.0183.00118-.0299.00236-.0647.01957-.0313.01638-.0701.04234-.1212.08981-.0014.00915-.0029.02102-.0039.03551-.0065.08542.007.23541.0406.40039.0666.33265.1957.72254.3351 1.10586.285.77674.6199 1.57145.9408 2.38655.8039 2.0196 1.2605 4.2159 1.6255 6.3867.1325.7549-1.0436 1.0202-1.2479.2816-.0122-.045-.0248-.09-.0377-.1348-.5052-1.7477-1.5997-3.2474-2.6106-4.7287-1.1949-1.7434-2.6403-3.33411-4.2862-4.65194-.8192-.65023-1.7022-1.24219-2.5996-1.63148-.4418-.19086-.9105-.32959-1.2669-.33313-.1733-.00335-.2998.03189-.3535.06403-.0544.03327-.093.06392-.1419.19628-.2138.33553.3851 1.17724 1.1089 1.87313.7213.71737 1.5254 1.43406 2.2803 2.21251 1.5225 1.5472 2.8742 3.3942 3.6241 5.5161.2776.7732-.6332 1.335-1.1993.7397-.0496-.0521-.1054-.1115-.1539-.1633-1.7457-1.8892-3.594-3.7909-5.754-4.6144-1.7775-.6469-3.76946-.7379-5.29395.0598-.86443.4453-1.53835 1.1761-1.95235 2.0781-1.23608 2.338.16146 6.599 2.05379 6.8205.42468.0011.77786-.0905.9418-.2181.16067-.1171.2728-.314.32582-.6935.09711-.7577-.11586-1.776-.38281-2.7401-.23323-1.0628.48051-1.6519.95859-1.8891.52397-.2517 1.02658-.263 1.46074-.207.87105.1291 1.51717.5155 2.08027.9189 1.1223.837 1.9189 1.8331 2.6506 2.8662.4443.6358.8374 1.3035 1.1808 1.9945 1.3503 2.8277 2.6228 6.0133 1.6144 9.5826-.4277 1.3942-1.4379 2.9178-3.0247 3.6246-3.67039 1.7208-7.49392-.5642-9.41769-3.035-1.02932-1.2897-1.84089-2.751-2.19446-4.486-.16338-.8658-.21426-1.836.12785-2.8419.23236-.7306.76206-1.4062 1.39403-1.8638-.97024-.8465-1.43498-2.0882-1.80235-3.1421-.51685-1.7662-.49711-3.7458.33165-5.4921.57253-1.2259 1.5819-2.3055 2.81792-2.9158 2.20133-1.09444 4.68827-.78847 6.72225.0389.5259.231 1.0161.4973 1.4775.7904-.6293-.6001-1.2957-1.1778-1.9676-1.81475-.3967-.38364-.7994-.77845-1.16312-1.31145-.35576-.50063-.69462-1.37305-.41793-2.1898.12232-.41039.4041-.84704.82665-1.1102.4108-.26134.8605-.33382 1.2291-.33984zm-5.63849 19.27434c-.28129-.0673-.41416-.043-.64089.0637-1.51976.5067-.56079 3.7277 1.08957 5.5178 1.6344 1.9334 4.10351 3.0699 5.95661 2.1131.6365-.2946 1.1163-.9223 1.3992-1.8084.2091-.6711.3426-1.4213.3932-2.2105-3.7412.8191-6.38797-3.1448-8.19769-3.6757zm2.82575-6.5295c.23209.9401.43161 1.9196.29238 3.0966-.07987.6324-.39061 1.4425-1.04141 1.9506 2.59537 1.7739 3.82797 3.8702 6.09167 3.3305-.1186-1.2529-.441-2.5266-.9935-3.6811-.2904-.6034-.6239-1.1852-.999-1.7352-.6372-.9302-1.346-1.7967-2.14671-2.4006-.38992-.2946-.81881-.5092-1.1357-.5528-.02352-.0038-.04618-.0063-.06773-.008zm18.86644-7.2444c.0093-.0079.0019-.0066-.0155.0096-.0005.0005-.001.0009-.0015.0014.0076-.0043.0134-.0081.017-.011z"/></g></svg>