<svg width="733" height="395" viewBox="0 0 733 395" fill="none" xmlns="http://www.w3.org/2000/svg">
<rect width="733" height="395" fill="white"/>
<path d="M490.824 222V174.883H501.302V222H490.824ZM498.833 222V212.924H524.66V222H498.833ZM498.833 202.312V193.57H522.324V202.312H498.833ZM498.833 183.893V174.883H524.326V183.893H498.833Z" fill="#131313"/>
<path d="M433.537 222V174.883H441.011L459.564 203.781H455.76L474.247 174.883H481.788V222H471.31V192.569L473.179 193.036L461.099 211.856H454.159L442.146 193.036L443.948 192.569V222H433.537Z" fill="#131313"/>
<path d="M419.001 222.734C417.266 222.734 415.82 222.134 414.663 220.932C413.506 219.731 412.928 218.285 412.928 216.594C412.928 214.815 413.506 213.346 414.663 212.19C415.82 210.988 417.266 210.388 419.001 210.388C420.781 210.388 422.226 210.988 423.339 212.19C424.496 213.346 425.074 214.815 425.074 216.594C425.074 218.285 424.496 219.731 423.339 220.932C422.226 222.134 420.781 222.734 419.001 222.734Z" fill="#131313"/>
<path d="M385.17 204.848V196.706H395.314C396.604 196.706 397.784 196.44 398.851 195.906C399.919 195.372 400.764 194.593 401.387 193.57C402.01 192.547 402.322 191.301 402.322 189.833C402.322 188.409 402.01 187.185 401.387 186.162C400.764 185.139 399.919 184.36 398.851 183.826C397.784 183.292 396.604 183.025 395.314 183.025H385.17V174.883H396.849C399.83 174.883 402.522 175.484 404.924 176.685C407.327 177.886 409.218 179.622 410.597 181.891C412.021 184.115 412.733 186.763 412.733 189.833C412.733 192.902 412.021 195.572 410.597 197.841C409.218 200.066 407.327 201.801 404.924 203.047C402.522 204.248 399.83 204.848 396.849 204.848H385.17ZM377.162 222V174.883H387.639V222H377.162Z" fill="#131313"/>
<path d="M336.555 216.127L354.641 197.441C355.753 196.328 356.643 195.305 357.31 194.371C357.978 193.436 358.467 192.569 358.779 191.768C359.09 190.923 359.246 190.077 359.246 189.232C359.246 187.408 358.645 185.984 357.444 184.961C356.287 183.893 354.752 183.359 352.839 183.359C350.97 183.359 349.28 183.871 347.767 184.894C346.299 185.873 344.875 187.497 343.496 189.766L336.488 183.693C338.357 180.534 340.737 178.153 343.629 176.552C346.521 174.95 349.836 174.149 353.573 174.149C356.821 174.149 359.624 174.75 361.982 175.951C364.385 177.152 366.231 178.865 367.521 181.09C368.856 183.314 369.523 185.917 369.523 188.898C369.523 190.767 369.279 192.502 368.789 194.104C368.3 195.661 367.499 197.218 366.387 198.775C365.319 200.288 363.873 201.956 362.049 203.781L349.502 216.261L336.555 216.127ZM336.555 222V216.127L345.431 213.057H370.458V222H336.555Z" fill="#131313"/>
<path d="M305.593 204.848V196.706H315.738C317.028 196.706 318.207 196.44 319.275 195.906C320.342 195.372 321.188 194.593 321.811 193.57C322.434 192.547 322.745 191.301 322.745 189.833C322.745 188.409 322.434 187.185 321.811 186.162C321.188 185.139 320.342 184.36 319.275 183.826C318.207 183.292 317.028 183.025 315.738 183.025H305.593V174.883H317.273C320.253 174.883 322.945 175.484 325.348 176.685C327.75 177.886 329.641 179.622 331.02 181.891C332.444 184.115 333.156 186.763 333.156 189.833C333.156 192.902 332.444 195.572 331.02 197.841C329.641 200.066 327.75 201.801 325.348 203.047C322.945 204.248 320.253 204.848 317.273 204.848H305.593ZM297.585 222V174.883H308.063V222H297.585Z" fill="#131313"/>
<path d="M244.975 158H273.342L273.333 202.74C273.333 203.559 273.236 204.895 273.101 205.703C271.119 217.526 262.492 225.999 250.514 226.014C241.529 226.025 222.315 226.014 222.315 226.014C222.315 226.014 222.306 206.38 222.319 197.906C222.326 194.159 224.919 191.389 228.518 191.281C232.072 191.173 234.135 191.08 234.135 191.08V198.595L246.329 186.045C246.329 186.045 236.211 186.045 228.403 186.045C221.429 186.045 216.922 192.124 217.023 198.235C217.195 208.762 217.072 220.661 217.072 231.191H243.02L233.275 241.335H205C205 241.335 205.021 212.334 205.018 197.914C205.018 196.89 205.085 195.861 205.197 194.844C206.531 182.793 216.798 173.519 228.924 173.453C237.542 173.406 255.821 173.427 255.821 173.427C255.821 182.489 255.825 192.627 255.821 201.689C255.818 205.42 253.114 208.164 249.397 208.182C245.253 208.202 243.729 208.188 243.729 208.188V201.386L232.014 213.429C232.014 213.429 240.92 213.429 249.478 213.429C256.269 213.429 261.11 208.217 261.11 201.398C261.11 190.758 261.11 168.062 261.11 168.062H235.377L244.975 158Z" fill="#493FEE"/>
</svg>
