<svg xmlns="http://www.w3.org/2000/svg" xmlns:xlink="http://www.w3.org/1999/xlink" width="192" zoomAndPan="magnify" viewBox="0 0 144 72" height="96" preserveAspectRatio="xMidYMid meet" version="1.0"><defs><g/></defs><g fill="#ffffff" fill-opacity="1"><g transform="translate(1.319531, 51)"><g><path d="M 21.421875 -41.046875 C 24.265625 -41.046875 26.90625 -40.515625 29.34375 -39.453125 C 31.78125 -38.390625 33.9375 -36.90625 35.8125 -35 C 37.695312 -33.101562 39.160156 -30.90625 40.203125 -28.40625 C 41.242188 -25.90625 41.765625 -23.21875 41.765625 -20.34375 C 41.765625 -17.457031 41.242188 -14.765625 40.203125 -12.265625 C 39.160156 -9.765625 37.695312 -7.5625 35.8125 -5.65625 C 33.9375 -3.757812 31.78125 -2.269531 29.34375 -1.1875 C 26.90625 -0.113281 24.265625 0.421875 21.421875 0.421875 C 18.617188 0.421875 15.988281 -0.113281 13.53125 -1.1875 C 11.070312 -2.269531 8.910156 -3.757812 7.046875 -5.65625 C 5.191406 -7.5625 3.734375 -9.765625 2.671875 -12.265625 C 1.609375 -14.765625 1.078125 -17.457031 1.078125 -20.34375 C 1.078125 -23.21875 1.609375 -25.90625 2.671875 -28.40625 C 3.734375 -30.90625 5.191406 -33.101562 7.046875 -35 C 8.910156 -36.90625 11.070312 -38.390625 13.53125 -39.453125 C 15.988281 -40.515625 18.617188 -41.046875 21.421875 -41.046875 Z M 31.5625 -4.015625 C 32.71875 -4.734375 33.304688 -6.125 33.328125 -8.1875 C 33.347656 -10.25 32.878906 -12.6875 31.921875 -15.5 C 30.960938 -18.320312 29.539062 -21.21875 27.65625 -24.1875 C 25.820312 -27.1875 23.851562 -29.742188 21.75 -31.859375 C 19.644531 -33.984375 17.660156 -35.484375 15.796875 -36.359375 C 13.941406 -37.242188 12.4375 -37.320312 11.28125 -36.59375 C 10.15625 -35.875 9.570312 -34.492188 9.53125 -32.453125 C 9.5 -30.421875 9.972656 -27.992188 10.953125 -25.171875 C 11.929688 -22.347656 13.34375 -19.4375 15.1875 -16.4375 C 17.0625 -13.4375 19.046875 -10.875 21.140625 -8.75 C 23.242188 -6.632812 25.222656 -5.144531 27.078125 -4.28125 C 28.941406 -3.425781 30.4375 -3.335938 31.5625 -4.015625 Z M 31.5625 -4.015625 "/></g></g></g><g fill="#ffffff" fill-opacity="1"><g transform="translate(44.159491, 51)"><g><path d="M 38.9375 -1.796875 C 40.613281 -2.078125 41.898438 -2.878906 42.796875 -4.203125 C 43.703125 -5.523438 44.285156 -7.15625 44.546875 -9.09375 C 44.804688 -11.03125 44.816406 -13.128906 44.578125 -15.390625 C 44.335938 -17.648438 43.882812 -19.878906 43.21875 -22.078125 C 42.5625 -24.273438 41.753906 -26.296875 40.796875 -28.140625 C 39.835938 -29.984375 38.800781 -31.421875 37.6875 -32.453125 L 55.078125 -32.453125 C 55.234375 -31.097656 55.222656 -29.367188 55.046875 -27.265625 C 54.867188 -25.171875 54.5 -22.890625 53.9375 -20.421875 C 53.375 -17.960938 52.613281 -15.523438 51.65625 -13.109375 C 50.695312 -10.691406 49.503906 -8.472656 48.078125 -6.453125 C 46.660156 -4.429688 44.992188 -2.8125 43.078125 -1.59375 C 41.160156 -0.375 38.960938 0.234375 36.484375 0.234375 C 34.359375 0.234375 32.722656 -0.453125 31.578125 -1.828125 C 30.441406 -3.210938 29.875 -5.039062 29.875 -7.3125 C 28.394531 -5.113281 26.644531 -3.304688 24.625 -1.890625 C 22.601562 -0.472656 20.296875 0.234375 17.703125 0.234375 C 14.222656 0.234375 11.34375 -0.472656 9.0625 -1.890625 C 6.78125 -3.304688 5.160156 -5.242188 4.203125 -7.703125 C 3.242188 -10.171875 3.003906 -12.960938 3.484375 -16.078125 C 3.878906 -18.484375 4.066406 -20.535156 4.046875 -22.234375 C 4.023438 -23.929688 3.4375 -25.28125 2.28125 -26.28125 C 1.476562 -26.957031 0.597656 -27.195312 -0.359375 -27 C -1.316406 -26.800781 -2.257812 -26.238281 -3.1875 -25.3125 L -4.140625 -26.28125 C -3.140625 -27.601562 -1.804688 -28.820312 -0.140625 -29.9375 C 1.515625 -31.0625 3.300781 -31.890625 5.21875 -32.421875 C 7.132812 -32.960938 8.992188 -33.0625 10.796875 -32.71875 C 12.597656 -32.382812 14.117188 -31.414062 15.359375 -29.8125 C 16.316406 -28.613281 16.9375 -27.253906 17.21875 -25.734375 C 17.5 -24.210938 17.585938 -22.601562 17.484375 -20.90625 C 17.390625 -19.207031 17.203125 -17.476562 16.921875 -15.71875 C 16.441406 -12.632812 16.210938 -10.148438 16.234375 -8.265625 C 16.253906 -6.390625 16.441406 -4.984375 16.796875 -4.046875 C 17.160156 -3.109375 17.640625 -2.488281 18.234375 -2.1875 C 18.835938 -1.882812 19.476562 -1.753906 20.15625 -1.796875 C 21.875 -1.921875 23.191406 -2.617188 24.109375 -3.890625 C 25.035156 -5.171875 25.628906 -6.832031 25.890625 -8.875 C 26.148438 -10.914062 26.109375 -13.113281 25.765625 -15.46875 C 25.429688 -17.832031 24.84375 -20.15625 24 -22.4375 C 23.15625 -24.71875 22.113281 -26.75 20.875 -28.53125 C 19.632812 -30.3125 18.238281 -31.617188 16.6875 -32.453125 L 34.078125 -32.453125 C 34.835938 -31.378906 35.296875 -29.789062 35.453125 -27.6875 C 35.617188 -25.59375 35.476562 -23.253906 35.03125 -20.671875 C 34.59375 -18.085938 33.851562 -15.535156 32.8125 -13.015625 C 31.9375 -10.054688 31.71875 -7.707031 32.15625 -5.96875 C 32.59375 -4.226562 33.441406 -3.023438 34.703125 -2.359375 C 35.960938 -1.703125 37.375 -1.515625 38.9375 -1.796875 Z M 38.9375 -1.796875 "/></g></g></g><g fill="#ffffff" fill-opacity="1"><g transform="translate(100.439438, 51)"><g><path d="M 1.375 -32.453125 L 2.875 -32.453125 C 2.875 -30.859375 3.175781 -29.703125 3.78125 -28.984375 C 4.382812 -28.265625 5.175781 -27.863281 6.15625 -27.78125 C 7.132812 -27.695312 8.203125 -27.796875 9.359375 -28.078125 C 10.554688 -28.359375 11.734375 -28.890625 12.890625 -29.671875 C 14.054688 -30.453125 15.28125 -31.179688 16.5625 -31.859375 C 17.84375 -32.535156 19.242188 -32.875 20.765625 -32.875 C 24.242188 -32.875 27.117188 -32.164062 29.390625 -30.75 C 31.671875 -29.332031 33.300781 -27.398438 34.28125 -24.953125 C 35.269531 -22.515625 35.503906 -19.738281 34.984375 -16.625 C 34.617188 -14.21875 34.445312 -12.175781 34.46875 -10.5 C 34.488281 -8.820312 35.078125 -7.460938 36.234375 -6.421875 C 37.035156 -5.742188 37.90625 -5.492188 38.84375 -5.671875 C 39.789062 -5.847656 40.742188 -6.414062 41.703125 -7.375 L 42.59375 -6.421875 C 41.59375 -5.097656 40.265625 -3.875 38.609375 -2.75 C 36.953125 -1.632812 35.171875 -0.804688 33.265625 -0.265625 C 31.367188 0.273438 29.519531 0.375 27.71875 0.03125 C 25.914062 -0.3125 24.375 -1.28125 23.09375 -2.875 C 22.132812 -4.113281 21.515625 -5.484375 21.234375 -6.984375 C 20.953125 -8.484375 20.878906 -10.082031 21.015625 -11.78125 C 21.160156 -13.488281 21.351562 -15.222656 21.59375 -16.984375 C 22.070312 -20.054688 22.257812 -22.515625 22.15625 -24.359375 C 22.0625 -26.203125 21.753906 -27.570312 21.234375 -28.46875 C 20.710938 -29.363281 20.0625 -29.890625 19.28125 -30.046875 C 18.507812 -30.210938 17.679688 -30.15625 16.796875 -29.875 C 15.921875 -29.59375 15.332031 -29.03125 15.03125 -28.1875 C 14.726562 -27.351562 14.554688 -26.335938 14.515625 -25.140625 L 14.515625 0 L 1.375 0 Z M 1.375 -32.453125 "/></g></g></g></svg>