<svg xmlns="http://www.w3.org/2000/svg" xmlns:xlink="http://www.w3.org/1999/xlink" width="1500" zoomAndPan="magnify" viewBox="0 0 1125 374.999991" height="500" preserveAspectRatio="xMidYMid meet" version="1.0"><defs><g/></defs><rect x="-112.5" width="1350" fill="#ffffff" y="-37.499999" height="449.999989" fill-opacity="1"/><rect x="-112.5" width="1350" fill="#2660f5" y="-37.499999" height="449.999989" fill-opacity="1"/><g fill="#ffffff" fill-opacity="1"><g transform="translate(347.935918, 169.849969)"><g><path d="M 0.171875 -0.203125 L 0.171875 -0.921875 C 0.171875 -1.054688 0.238281 -1.125 0.375 -1.125 L 0.9375 -1.125 C 1.644531 -1.164062 2.367188 -1.191406 3.109375 -1.203125 C 3.859375 -1.210938 4.539062 -1.300781 5.15625 -1.46875 C 6.539062 -1.875 7.234375 -2.890625 7.234375 -4.515625 L 7.234375 -31.28125 C 7.234375 -32.957031 6.242188 -34.023438 4.265625 -34.484375 C 3.703125 -34.597656 3.132812 -34.695312 2.5625 -34.78125 L 2.03125 -34.78125 C 1.894531 -34.78125 1.828125 -34.847656 1.828125 -34.984375 L 1.828125 -35.59375 C 1.828125 -35.726562 1.894531 -35.796875 2.03125 -35.796875 L 26.171875 -35.796875 C 26.484375 -35.796875 26.707031 -35.738281 26.84375 -35.625 C 26.976562 -35.519531 27.0625 -35.28125 27.09375 -34.90625 L 27.546875 -27.546875 C 27.546875 -27.378906 27.414062 -27.296875 27.15625 -27.296875 C 26.90625 -27.296875 26.722656 -27.375 26.609375 -27.53125 C 26.503906 -27.695312 26.367188 -28.3125 26.203125 -29.375 C 26.046875 -30.445312 25.753906 -31.335938 25.328125 -32.046875 C 24.910156 -32.753906 24.171875 -33.203125 23.109375 -33.390625 L 12.515625 -33.390625 C 12.296875 -33.390625 12.1875 -33.28125 12.1875 -33.0625 L 12.1875 -19.9375 C 12.1875 -19.757812 12.269531 -19.671875 12.4375 -19.671875 L 21.234375 -19.671875 C 23.492188 -19.671875 24.625 -20.992188 24.625 -23.640625 C 24.625 -23.773438 24.691406 -23.84375 24.828125 -23.84375 L 25.4375 -23.84375 C 25.570312 -23.84375 25.640625 -23.773438 25.640625 -23.640625 L 25.640625 -12.765625 C 25.640625 -12.628906 25.570312 -12.5625 25.4375 -12.5625 L 24.828125 -12.5625 C 24.691406 -12.5625 24.625 -12.628906 24.625 -12.765625 C 24.625 -15.273438 23.898438 -16.722656 22.453125 -17.109375 C 22.046875 -17.210938 21.613281 -17.265625 21.15625 -17.265625 L 12.4375 -17.265625 C 12.269531 -17.265625 12.1875 -17.179688 12.1875 -17.015625 L 12.1875 -4.640625 C 12.1875 -3.378906 12.769531 -2.660156 13.9375 -2.484375 C 14.28125 -2.429688 14.632812 -2.40625 15 -2.40625 L 23.46875 -2.40625 C 25.207031 -2.40625 26.5625 -3.175781 27.53125 -4.71875 C 28.21875 -5.820312 28.640625 -7.082031 28.796875 -8.5 C 28.847656 -8.976562 29.101562 -9.21875 29.5625 -9.21875 C 29.757812 -9.21875 29.859375 -9.109375 29.859375 -8.890625 L 29.015625 -0.359375 C 28.921875 -0.117188 28.804688 0 28.671875 0 L 0.375 0 C 0.238281 0 0.171875 -0.0664062 0.171875 -0.203125 Z M 0.171875 -0.203125 "/></g></g></g><g fill="#ffffff" fill-opacity="1"><g transform="translate(378.727252, 169.849969)"><g><path d="M 17.46875 -4.1875 C 17.46875 -3.75 17.675781 -3.398438 18.09375 -3.140625 C 18.507812 -2.878906 18.988281 -2.75 19.53125 -2.75 C 20.070312 -2.75 20.523438 -2.882812 20.890625 -3.15625 C 21.253906 -3.4375 21.503906 -3.578125 21.640625 -3.578125 C 21.773438 -3.578125 21.84375 -3.394531 21.84375 -3.03125 C 21.84375 -2.664062 21.671875 -2.359375 21.328125 -2.109375 C 18.785156 -0.242188 17.066406 0.6875 16.171875 0.6875 C 15.085938 0.6875 14.207031 -0.4375 13.53125 -2.6875 C 13.476562 -2.863281 13.4375 -2.941406 13.40625 -2.921875 C 11.3125 -1.347656 9.992188 -0.398438 9.453125 -0.078125 C 8.054688 0.722656 6.660156 0.847656 5.265625 0.296875 C 3.867188 -0.242188 2.859375 -1.140625 2.234375 -2.390625 C 1.929688 -3.035156 1.78125 -3.71875 1.78125 -4.4375 C 1.78125 -5.882812 2.3125 -7.03125 3.375 -7.875 C 4.445312 -8.71875 6.476562 -9.53125 9.46875 -10.3125 C 10.488281 -10.582031 11.394531 -10.925781 12.1875 -11.34375 C 12.976562 -11.769531 13.394531 -12.039062 13.4375 -12.15625 C 13.488281 -12.28125 13.515625 -12.394531 13.515625 -12.5 L 13.515625 -17.375 C 13.515625 -19.28125 12.769531 -20.625 11.28125 -21.40625 C 10.78125 -21.65625 10.1875 -21.78125 9.5 -21.78125 C 8.820312 -21.78125 8.128906 -21.507812 7.421875 -20.96875 C 6.722656 -20.425781 6.375 -19.65625 6.375 -18.65625 L 6.5 -17.671875 C 6.394531 -17.472656 5.785156 -17.132812 4.671875 -16.65625 C 3.554688 -16.1875 2.914062 -15.929688 2.75 -15.890625 C 2.476562 -15.890625 2.34375 -16.210938 2.34375 -16.859375 C 2.34375 -17.515625 2.535156 -18.238281 2.921875 -19.03125 C 3.304688 -19.832031 3.859375 -20.566406 4.578125 -21.234375 C 6.234375 -22.765625 8.125 -23.53125 10.25 -23.53125 C 12.382812 -23.53125 14.117188 -22.941406 15.453125 -21.765625 C 16.796875 -20.597656 17.46875 -19.203125 17.46875 -17.578125 Z M 5.765625 -4.921875 C 5.765625 -4.109375 6.078125 -3.398438 6.703125 -2.796875 C 7.328125 -2.203125 8.039062 -1.90625 8.84375 -1.90625 C 9.65625 -1.90625 10.632812 -2.25 11.78125 -2.9375 C 12.9375 -3.625 13.515625 -4.328125 13.515625 -5.046875 L 13.515625 -10.203125 C 13.515625 -10.390625 13.46875 -10.484375 13.375 -10.484375 C 13.289062 -10.484375 13.234375 -10.476562 13.203125 -10.46875 L 7.3125 -7.71875 C 6.707031 -7.28125 6.296875 -6.90625 6.078125 -6.59375 C 5.867188 -6.289062 5.765625 -5.734375 5.765625 -4.921875 Z M 5.765625 -4.921875 "/></g></g></g><g fill="#ffffff" fill-opacity="1"><g transform="translate(399.896268, 169.849969)"><g><path d="M 17.21875 -18.203125 C 17.007812 -18.234375 16.710938 -18.34375 16.328125 -18.53125 C 14.921875 -19.175781 13.816406 -19.5 13.015625 -19.5 C 12.222656 -19.5 11.390625 -19.003906 10.515625 -18.015625 C 9.648438 -17.023438 9.21875 -16.132812 9.21875 -15.34375 L 9.21875 -3.859375 C 9.21875 -2.585938 9.953125 -1.742188 11.421875 -1.328125 C 12.066406 -1.148438 12.664062 -1.023438 13.21875 -0.953125 C 13.78125 -0.878906 14.140625 -0.804688 14.296875 -0.734375 C 14.460938 -0.671875 14.546875 -0.539062 14.546875 -0.34375 C 14.546875 -0.144531 14.460938 -0.03125 14.296875 0 L 1.578125 0 C 1.410156 -0.03125 1.328125 -0.148438 1.328125 -0.359375 C 1.328125 -0.660156 1.722656 -0.863281 2.515625 -0.96875 C 4.335938 -1.238281 5.25 -2.203125 5.25 -3.859375 L 5.25 -17.296875 C 5.25 -18.003906 4.863281 -18.492188 4.09375 -18.765625 C 3.75 -18.878906 3.378906 -18.972656 2.984375 -19.046875 C 2.597656 -19.128906 2.289062 -19.203125 2.0625 -19.265625 C 1.84375 -19.335938 1.703125 -19.398438 1.640625 -19.453125 C 1.578125 -19.515625 1.546875 -19.644531 1.546875 -19.84375 C 1.546875 -20.039062 1.675781 -20.207031 1.9375 -20.34375 L 8.40625 -23.390625 C 8.601562 -23.484375 8.726562 -23.53125 8.78125 -23.53125 C 9.070312 -23.53125 9.21875 -23.328125 9.21875 -22.921875 L 9.21875 -18.8125 C 9.21875 -18.613281 9.269531 -18.515625 9.375 -18.515625 C 9.507812 -18.515625 9.851562 -18.910156 10.40625 -19.703125 C 12.019531 -21.953125 13.347656 -23.078125 14.390625 -23.078125 C 14.984375 -23.078125 15.894531 -22.835938 17.125 -22.359375 C 18.351562 -21.890625 18.96875 -21.492188 18.96875 -21.171875 C 18.96875 -20.785156 18.769531 -20.191406 18.375 -19.390625 C 17.988281 -18.597656 17.601562 -18.203125 17.21875 -18.203125 Z M 17.21875 -18.203125 "/></g></g></g><g fill="#ffffff" fill-opacity="1"><g transform="translate(417.561642, 169.849969)"><g><path d="M 20.421875 -8 L 20.359375 -13.359375 C 20.359375 -15.535156 20.171875 -17.0625 19.796875 -17.9375 C 19.429688 -18.820312 18.957031 -19.488281 18.375 -19.9375 C 17.800781 -20.394531 17.023438 -20.625 16.046875 -20.625 C 15.078125 -20.625 13.019531 -19.859375 9.875 -18.328125 C 9.457031 -18.078125 9.238281 -17.84375 9.21875 -17.625 L 9.21875 -3.96875 C 9.21875 -2.25 10.128906 -1.265625 11.953125 -1.015625 C 12.753906 -0.898438 13.15625 -0.707031 13.15625 -0.4375 C 13.15625 -0.175781 13.070312 -0.03125 12.90625 0 L 1.578125 0 C 1.410156 -0.03125 1.328125 -0.148438 1.328125 -0.359375 C 1.328125 -0.679688 1.722656 -0.898438 2.515625 -1.015625 C 4.335938 -1.265625 5.25 -2.25 5.25 -3.96875 L 5.25 -18.53125 C 5.25 -19.25 4.863281 -19.742188 4.09375 -20.015625 C 3.75 -20.128906 3.378906 -20.222656 2.984375 -20.296875 C 2.597656 -20.378906 2.289062 -20.453125 2.0625 -20.515625 C 1.84375 -20.585938 1.703125 -20.648438 1.640625 -20.703125 C 1.578125 -20.765625 1.546875 -20.890625 1.546875 -21.078125 C 1.546875 -21.273438 1.675781 -21.441406 1.9375 -21.578125 L 8.40625 -24.625 C 8.601562 -24.726562 8.726562 -24.78125 8.78125 -24.78125 C 9.070312 -24.78125 9.21875 -24.578125 9.21875 -24.171875 L 9.21875 -20.21875 C 9.269531 -20.039062 9.335938 -19.953125 9.421875 -19.953125 C 9.523438 -19.953125 9.890625 -20.109375 10.515625 -20.421875 C 11.972656 -21.140625 13.4375 -21.835938 14.90625 -22.515625 C 16.375 -23.191406 17.59375 -23.53125 18.5625 -23.53125 C 22.46875 -23.53125 24.421875 -19.96875 24.421875 -12.84375 L 24.203125 -5.4375 L 24.203125 -3.96875 C 24.203125 -2.644531 24.859375 -1.78125 26.171875 -1.375 C 26.734375 -1.1875 27.269531 -1.050781 27.78125 -0.96875 C 28.300781 -0.894531 28.640625 -0.820312 28.796875 -0.75 C 28.960938 -0.6875 29.046875 -0.550781 29.046875 -0.34375 C 29.046875 -0.144531 28.960938 -0.03125 28.796875 0 L 16.5625 0 C 16.382812 -0.03125 16.296875 -0.148438 16.296875 -0.359375 C 16.296875 -0.679688 16.695312 -0.898438 17.5 -1.015625 C 19.3125 -1.265625 20.21875 -2.316406 20.21875 -4.171875 C 20.351562 -5.015625 20.421875 -6.289062 20.421875 -8 Z M 20.421875 -8 "/></g></g></g><g fill="#ffffff" fill-opacity="1"><g transform="translate(445.814104, 169.849969)"><g/></g></g><g fill="#ffffff" fill-opacity="1"><g transform="translate(458.477895, 169.849969)"><g><path d="M 19.140625 -2.234375 C 19.054688 -2.523438 18.945312 -2.625 18.8125 -2.53125 C 18.675781 -2.4375 18.128906 -2.144531 17.171875 -1.65625 C 14.003906 -0.0703125 11.359375 0.71875 9.234375 0.71875 C 7.117188 0.71875 5.597656 0.0351562 4.671875 -1.328125 C 4.335938 -1.828125 4.171875 -2.453125 4.171875 -3.203125 L 4.171875 -18.6875 C 4.117188 -19.175781 3.894531 -19.597656 3.5 -19.953125 C 2.976562 -20.398438 2.429688 -20.640625 1.859375 -20.671875 C 1.296875 -20.703125 1.015625 -20.875 1.015625 -21.1875 C 1.015625 -21.5 1.148438 -21.691406 1.421875 -21.765625 L 7.234375 -23.4375 C 7.441406 -23.5 7.640625 -23.53125 7.828125 -23.53125 C 8.023438 -23.53125 8.125 -23.390625 8.125 -23.109375 L 8.125 -6.0625 C 8.125 -4.882812 8.648438 -3.972656 9.703125 -3.328125 C 10.753906 -2.679688 12.09375 -2.359375 13.71875 -2.359375 C 15.351562 -2.359375 16.820312 -2.859375 18.125 -3.859375 C 18.53125 -4.179688 18.867188 -4.535156 19.140625 -4.921875 L 19.140625 -18.6875 C 19.085938 -19.175781 18.867188 -19.597656 18.484375 -19.953125 C 17.960938 -20.398438 17.414062 -20.640625 16.84375 -20.671875 C 16.28125 -20.703125 16 -20.875 16 -21.1875 C 16 -21.5 16.132812 -21.691406 16.40625 -21.765625 L 22.21875 -23.4375 C 22.414062 -23.5 22.613281 -23.53125 22.8125 -23.53125 C 23.007812 -23.53125 23.109375 -23.363281 23.109375 -23.03125 L 23.109375 -5 C 23.191406 -4.257812 23.398438 -3.726562 23.734375 -3.40625 C 24.078125 -3.082031 24.628906 -2.921875 25.390625 -2.921875 L 26.859375 -3.015625 C 26.960938 -3.015625 27.015625 -2.914062 27.015625 -2.71875 C 27.015625 -2.53125 26.890625 -2.378906 26.640625 -2.265625 L 19.875 0.53125 C 19.675781 0.632812 19.503906 0.6875 19.359375 0.6875 C 19.210938 0.6875 19.140625 0.472656 19.140625 0.046875 Z M 19.140625 -2.234375 "/></g></g></g><g fill="#ffffff" fill-opacity="1"><g transform="translate(485.714809, 169.849969)"><g><path d="M 20.890625 -2.671875 C 18.554688 -0.429688 15.9375 0.6875 13.03125 0.6875 C 11.976562 0.6875 10.546875 0.492188 8.734375 0.109375 C 8.441406 0.109375 8.285156 0.207031 8.265625 0.40625 C 8.242188 0.613281 8.222656 0.828125 8.203125 1.046875 L 8.203125 11.890625 C 8.203125 13.148438 8.9375 13.992188 10.40625 14.421875 C 11.050781 14.585938 11.648438 14.707031 12.203125 14.78125 C 12.765625 14.863281 13.125 14.9375 13.28125 15 C 13.445312 15.070312 13.53125 15.203125 13.53125 15.390625 C 13.53125 15.585938 13.445312 15.707031 13.28125 15.75 L 0.5625 15.75 C 0.394531 15.707031 0.3125 15.585938 0.3125 15.390625 C 0.3125 15.085938 0.707031 14.882812 1.5 14.78125 C 3.320312 14.507812 4.234375 13.546875 4.234375 11.890625 L 4.234375 -18.5625 C 4.234375 -19.269531 3.847656 -19.757812 3.078125 -20.03125 C 2.734375 -20.15625 2.363281 -20.253906 1.96875 -20.328125 C 1.582031 -20.398438 1.273438 -20.46875 1.046875 -20.53125 C 0.828125 -20.601562 0.6875 -20.671875 0.625 -20.734375 C 0.5625 -20.796875 0.53125 -20.921875 0.53125 -21.109375 C 0.53125 -21.304688 0.660156 -21.472656 0.921875 -21.609375 L 7.390625 -24.703125 C 7.523438 -24.773438 7.660156 -24.8125 7.796875 -24.8125 C 8.066406 -24.8125 8.203125 -24.609375 8.203125 -24.203125 L 8.203125 -20.96875 C 8.203125 -20.78125 8.296875 -20.6875 8.484375 -20.6875 C 8.679688 -20.6875 9.15625 -20.9375 9.90625 -21.4375 C 12.050781 -22.820312 14.285156 -23.515625 16.609375 -23.515625 C 18.234375 -23.515625 19.722656 -22.851562 21.078125 -21.53125 C 22.847656 -19.800781 24.03125 -17.398438 24.625 -14.328125 C 24.800781 -13.441406 24.890625 -12.503906 24.890625 -11.515625 C 24.890625 -10.523438 24.726562 -9.476562 24.40625 -8.375 C 23.757812 -6.195312 22.585938 -4.296875 20.890625 -2.671875 Z M 13.640625 -20.875 C 11.335938 -20.875 9.523438 -20.210938 8.203125 -18.890625 L 8.203125 -4.625 C 8.203125 -3.78125 8.347656 -3.226562 8.640625 -2.96875 C 9.378906 -2.320312 10.519531 -1.820312 12.0625 -1.46875 C 15.101562 -0.78125 17.472656 -1.507812 19.171875 -3.65625 C 20.367188 -5.195312 20.96875 -7.0625 20.96875 -9.25 C 20.96875 -13.488281 20.015625 -16.671875 18.109375 -18.796875 C 16.953125 -20.078125 15.460938 -20.769531 13.640625 -20.875 Z M 13.640625 -20.875 "/></g></g></g><g fill="#ffffff" fill-opacity="1"><g transform="translate(512.088506, 169.849969)"><g><path d="M 7.953125 -19.53125 C 7.847656 -19.53125 7.796875 -19.453125 7.796875 -19.296875 L 7.796875 -5.28125 C 7.796875 -4.269531 8.019531 -3.472656 8.46875 -2.890625 C 8.914062 -2.316406 9.484375 -2.03125 10.171875 -2.03125 C 10.867188 -2.03125 11.472656 -2.144531 11.984375 -2.375 C 12.503906 -2.601562 12.957031 -2.851562 13.34375 -3.125 C 13.726562 -3.394531 14.070312 -3.644531 14.375 -3.875 C 14.675781 -4.101562 14.945312 -4.21875 15.1875 -4.21875 C 15.425781 -4.21875 15.546875 -4.15625 15.546875 -4.03125 C 15.546875 -3.625 15.5 -3.363281 15.40625 -3.25 C 13.375 -0.625 11.414062 0.6875 9.53125 0.6875 C 7.644531 0.6875 6.222656 0.09375 5.265625 -1.09375 C 4.304688 -2.289062 3.828125 -3.722656 3.828125 -5.390625 L 3.828125 -19.53125 L 1.9375 -19.53125 C 1.457031 -19.53125 1.203125 -19.679688 1.171875 -19.984375 C 1.148438 -20.285156 1.203125 -20.476562 1.328125 -20.5625 C 2.222656 -21.144531 3.457031 -22.179688 5.03125 -23.671875 C 5.195312 -23.847656 5.421875 -24.125 5.703125 -24.5 C 5.992188 -24.875 6.414062 -25.378906 6.96875 -26.015625 C 7.519531 -26.660156 7.9375 -26.984375 8.21875 -26.984375 C 8.507812 -26.984375 8.65625 -26.867188 8.65625 -26.640625 C 8.65625 -26.597656 8.367188 -25.488281 7.796875 -23.3125 C 7.796875 -23.007812 7.929688 -22.847656 8.203125 -22.828125 L 14.671875 -22.828125 C 15.421875 -22.828125 15.796875 -21.773438 15.796875 -19.671875 C 15.796875 -19.578125 15.726562 -19.53125 15.59375 -19.53125 Z M 7.953125 -19.53125 "/></g></g></g><g fill="#ffffff" fill-opacity="1"><g transform="translate(527.215008, 169.849969)"><g><path d="M 1.90625 -11.40625 C 1.90625 -14.738281 3.082031 -17.601562 5.4375 -20 C 7.800781 -22.394531 10.632812 -23.59375 13.9375 -23.59375 C 17.238281 -23.59375 20.109375 -22.425781 22.546875 -20.09375 C 24.984375 -17.769531 26.203125 -14.894531 26.203125 -11.46875 C 26.203125 -8.050781 25.046875 -5.171875 22.734375 -2.828125 C 20.421875 -0.484375 17.519531 0.6875 14.03125 0.6875 C 10.550781 0.6875 7.660156 -0.492188 5.359375 -2.859375 C 3.054688 -5.234375 1.90625 -8.082031 1.90625 -11.40625 Z M 8.234375 -4.875 C 9.890625 -2.082031 12.144531 -0.6875 15 -0.6875 C 17.21875 -0.6875 18.914062 -1.570312 20.09375 -3.34375 C 21.269531 -5.125 21.859375 -7.304688 21.859375 -9.890625 C 21.859375 -12.484375 21.03125 -15.144531 19.375 -17.875 C 17.726562 -20.601562 15.507812 -21.96875 12.71875 -21.96875 C 10.675781 -21.96875 9.066406 -21.082031 7.890625 -19.3125 C 6.710938 -17.539062 6.125 -15.296875 6.125 -12.578125 C 6.125 -9.859375 6.828125 -7.289062 8.234375 -4.875 Z M 8.234375 -4.875 "/></g></g></g><g fill="#ffffff" fill-opacity="1"><g transform="translate(554.020331, 169.849969)"><g/></g></g><g fill="#ffffff" fill-opacity="1"><g transform="translate(566.68411, 169.849969)"><g><path d="M 3.28125 -24.453125 L 2.671875 -24.375 C 2.492188 -24.375 2.40625 -24.425781 2.40625 -24.53125 C 2.40625 -25 2.6875 -26.039062 3.25 -27.65625 C 3.8125 -29.28125 4.457031 -30.472656 5.1875 -31.234375 C 7.632812 -33.753906 10.390625 -35.015625 13.453125 -35.015625 C 16.515625 -35.015625 18.976562 -34.050781 20.84375 -32.125 C 22.707031 -30.207031 23.640625 -27.796875 23.640625 -24.890625 C 23.640625 -21.992188 21.757812 -18.789062 18 -15.28125 C 16.8125 -14.164062 15.820312 -13.269531 15.03125 -12.59375 C 14.019531 -11.726562 12.226562 -10.046875 9.65625 -7.546875 C 7.09375 -5.054688 5.8125 -3.679688 5.8125 -3.421875 L 20.109375 -3.421875 C 21.347656 -3.421875 22.21875 -3.769531 22.71875 -4.46875 C 23.03125 -4.875 23.421875 -5.945312 23.890625 -7.6875 L 24.859375 -7.6875 L 23.765625 -0.84375 C 23.679688 -0.445312 23.488281 -0.164062 23.1875 0 L 2.0625 0 C 1.976562 0 1.9375 -0.21875 1.9375 -0.65625 C 1.9375 -1.082031 2.328125 -1.742188 3.109375 -2.640625 C 3.898438 -3.535156 4.90625 -4.597656 6.125 -5.828125 C 7.351562 -7.054688 9.023438 -8.738281 11.140625 -10.875 C 16.523438 -16.332031 19.21875 -20.707031 19.21875 -24 C 19.21875 -26.007812 18.484375 -27.832031 17.015625 -29.46875 C 15.554688 -31.101562 13.859375 -31.921875 11.921875 -31.921875 C 9.984375 -31.921875 8.253906 -31.269531 6.734375 -29.96875 C 5.242188 -28.65625 4.234375 -26.96875 3.703125 -24.90625 C 3.640625 -24.601562 3.5 -24.453125 3.28125 -24.453125 Z M 3.28125 -24.453125 "/></g></g></g><g fill="#ffffff" fill-opacity="1"><g transform="translate(592.016865, 169.849969)"><g><path d="M 2.203125 -10.0625 C 1.796875 -10.0625 1.59375 -10.21875 1.59375 -10.53125 C 1.59375 -10.84375 1.660156 -11.097656 1.796875 -11.296875 L 17.546875 -34.4375 C 17.796875 -34.820312 18.085938 -35.015625 18.421875 -35.015625 C 18.765625 -35.015625 19.035156 -34.988281 19.234375 -34.9375 C 19.429688 -34.882812 19.53125 -34.691406 19.53125 -34.359375 L 19.53125 -13.484375 C 19.53125 -13.210938 19.570312 -13.035156 19.65625 -12.953125 C 19.738281 -12.878906 19.90625 -12.84375 20.15625 -12.84375 L 24.25 -12.84375 C 24.4375 -12.84375 24.613281 -12.828125 24.78125 -12.796875 C 24.945312 -12.765625 25.03125 -12.628906 25.03125 -12.390625 L 25.03125 -10.671875 C 25.03125 -10.265625 24.863281 -10.0625 24.53125 -10.0625 L 20.1875 -10.0625 C 19.863281 -10.0625 19.671875 -10.015625 19.609375 -9.921875 C 19.554688 -9.835938 19.53125 -9.679688 19.53125 -9.453125 L 19.53125 0.375 C 19.53125 0.75 19.382812 0.9375 19.09375 0.9375 L 16.359375 0.9375 C 16.015625 0.9375 15.84375 0.742188 15.84375 0.359375 L 15.84375 -9.453125 C 15.84375 -9.679688 15.800781 -9.835938 15.71875 -9.921875 C 15.644531 -10.015625 15.46875 -10.0625 15.1875 -10.0625 Z M 15.84375 -27.421875 C 15.84375 -28.078125 15.640625 -28.40625 15.234375 -28.40625 C 15.097656 -28.40625 14.851562 -28.226562 14.5 -27.875 L 4.75 -13.359375 C 4.675781 -13.273438 4.640625 -13.164062 4.640625 -13.03125 C 4.640625 -12.90625 4.90625 -12.84375 5.4375 -12.84375 L 15.1875 -12.84375 C 15.46875 -12.84375 15.644531 -12.898438 15.71875 -13.015625 C 15.800781 -13.140625 15.84375 -13.304688 15.84375 -13.515625 Z M 15.84375 -27.421875 "/></g></g></g><g fill="#ffffff" fill-opacity="1"><g transform="translate(617.349642, 169.849969)"><g><path d="M 40.34375 -2.71875 C 39.71875 -1.738281 38.957031 -0.941406 38.0625 -0.328125 C 37.175781 0.273438 36.234375 0.578125 35.234375 0.578125 C 33.296875 0.578125 31.597656 -0.472656 30.140625 -2.578125 C 28.679688 -4.691406 27.953125 -7.144531 27.953125 -9.9375 C 27.953125 -12.726562 28.628906 -15.238281 29.984375 -17.46875 C 31.335938 -19.707031 32.972656 -20.828125 34.890625 -20.828125 C 37.191406 -20.828125 39 -19.742188 40.3125 -17.578125 C 41.632812 -15.410156 42.296875 -12.910156 42.296875 -10.078125 C 42.296875 -7.242188 41.644531 -4.789062 40.34375 -2.71875 Z M 31.03125 -9.734375 C 31.03125 -6.898438 31.34375 -4.742188 31.96875 -3.265625 C 32.59375 -1.785156 33.679688 -1.046875 35.234375 -1.046875 C 37.472656 -1.046875 38.753906 -2.890625 39.078125 -6.578125 C 39.160156 -7.660156 39.203125 -8.675781 39.203125 -9.625 C 39.203125 -11.695312 39.144531 -13.207031 39.03125 -14.15625 C 38.601562 -17.488281 37.347656 -19.15625 35.265625 -19.15625 C 34.179688 -19.15625 33.375 -18.863281 32.84375 -18.28125 C 32.320312 -17.707031 31.890625 -16.847656 31.546875 -15.703125 C 31.203125 -14.566406 31.03125 -12.578125 31.03125 -9.734375 Z M 34.5625 -37.578125 L 37.859375 -37.578125 L 9.90625 1.390625 L 6.625 1.390625 Z M 14.53125 -18.765625 C 13.90625 -17.785156 13.144531 -16.988281 12.25 -16.375 C 11.363281 -15.769531 10.421875 -15.46875 9.421875 -15.46875 C 7.484375 -15.46875 5.785156 -16.519531 4.328125 -18.625 C 2.867188 -20.738281 2.140625 -23.191406 2.140625 -25.984375 C 2.140625 -28.773438 2.816406 -31.285156 4.171875 -33.515625 C 5.523438 -35.753906 7.160156 -36.875 9.078125 -36.875 C 11.378906 -36.875 13.1875 -35.789062 14.5 -33.625 C 15.820312 -31.457031 16.484375 -28.957031 16.484375 -26.125 C 16.484375 -23.289062 15.832031 -20.835938 14.53125 -18.765625 Z M 5.21875 -25.78125 C 5.21875 -22.945312 5.53125 -20.789062 6.15625 -19.3125 C 6.78125 -17.832031 7.867188 -17.09375 9.421875 -17.09375 C 11.660156 -17.09375 12.941406 -18.9375 13.265625 -22.625 C 13.347656 -23.707031 13.390625 -24.722656 13.390625 -25.671875 C 13.390625 -27.742188 13.332031 -29.253906 13.21875 -30.203125 C 12.789062 -33.535156 11.535156 -35.203125 9.453125 -35.203125 C 8.367188 -35.203125 7.5625 -34.910156 7.03125 -34.328125 C 6.507812 -33.753906 6.078125 -32.894531 5.734375 -31.75 C 5.390625 -30.613281 5.21875 -28.625 5.21875 -25.78125 Z M 5.21875 -25.78125 "/></g></g></g><g fill="#ffffff" fill-opacity="1"><g transform="translate(660.479904, 169.849969)"><g/></g></g><g fill="#ffffff" fill-opacity="1"><g transform="translate(673.143683, 169.849969)"><g><path d="M 13.515625 -0.203125 C 13.515625 -0.0664062 13.445312 0 13.3125 0 L 0.328125 0 C 0.191406 0 0.125 -0.0664062 0.125 -0.203125 L 0.125 -0.8125 C 0.125 -0.945312 0.234375 -1.015625 0.453125 -1.015625 C 2.773438 -1.117188 4.34375 -2.351562 5.15625 -4.71875 L 15.515625 -34.703125 C 15.535156 -34.742188 15.546875 -34.789062 15.546875 -34.84375 L 15.265625 -35.671875 C 15.265625 -35.753906 15.296875 -35.796875 15.359375 -35.796875 L 20.4375 -35.796875 C 20.46875 -35.785156 20.515625 -35.769531 20.578125 -35.75 C 20.640625 -35.726562 20.6875 -35.675781 20.71875 -35.59375 L 31.453125 -5.453125 C 31.691406 -5.003906 31.882812 -4.59375 32.03125 -4.21875 C 32.175781 -3.84375 32.34375 -3.503906 32.53125 -3.203125 C 32.9375 -2.503906 33.601562 -1.96875 34.53125 -1.59375 C 35.3125 -1.207031 36.023438 -1.015625 36.671875 -1.015625 C 36.804688 -1.015625 36.875 -0.9375 36.875 -0.78125 L 36.875 -0.203125 C 36.875 -0.0664062 36.804688 0 36.671875 0 L 21.125 0 C 20.988281 0 20.921875 -0.0664062 20.921875 -0.203125 L 20.921875 -0.8125 C 20.921875 -0.945312 21.234375 -1.03125 21.859375 -1.0625 C 22.484375 -1.101562 23 -1.140625 23.40625 -1.171875 C 25.757812 -1.421875 26.9375 -2.21875 26.9375 -3.5625 C 26.9375 -3.65625 26.921875 -3.769531 26.890625 -3.90625 L 23.0625 -14.734375 C 23.039062 -14.765625 23.003906 -14.835938 22.953125 -14.953125 C 22.753906 -15.523438 22.398438 -15.8125 21.890625 -15.8125 L 12.875 -15.8125 C 12.363281 -15.8125 11.96875 -15.535156 11.6875 -14.984375 C 11.632812 -14.859375 11.609375 -14.789062 11.609375 -14.78125 L 7.796875 -3.625 L 7.796875 -3.40625 C 7.796875 -2.96875 8.023438 -2.566406 8.484375 -2.203125 C 9.515625 -1.410156 10.898438 -1.015625 12.640625 -1.015625 L 13.3125 -1.015625 C 13.445312 -1.015625 13.515625 -0.945312 13.515625 -0.8125 Z M 21.03125 -18.640625 C 21.332031 -18.640625 21.484375 -18.765625 21.484375 -19.015625 C 21.484375 -19.148438 21.445312 -19.300781 21.375 -19.46875 L 17.59375 -29.890625 C 17.425781 -30.347656 17.300781 -30.578125 17.21875 -30.578125 C 17.132812 -30.578125 17 -30.335938 16.8125 -29.859375 L 13.25 -19.46875 C 13.1875 -19.300781 13.15625 -19.117188 13.15625 -18.921875 C 13.15625 -18.734375 13.28125 -18.640625 13.53125 -18.640625 Z M 21.03125 -18.640625 "/></g></g></g><g fill="#ffffff" fill-opacity="1"><g transform="translate(708.835033, 169.849969)"><g><path d="M 2.546875 0 C 2.410156 0 2.34375 -0.171875 2.34375 -0.515625 L 2.34375 -0.8125 C 2.34375 -0.945312 2.425781 -1.015625 2.59375 -1.015625 C 2.757812 -1.015625 3.003906 -1.066406 3.328125 -1.171875 C 3.660156 -1.273438 3.914062 -1.34375 4.09375 -1.375 C 5.8125 -1.757812 6.671875 -2.738281 6.671875 -4.3125 L 6.671875 -31.125 C 6.671875 -32.6875 6.382812 -33.679688 5.8125 -34.109375 C 5.238281 -34.546875 4.195312 -34.765625 2.6875 -34.765625 L 1.546875 -34.765625 C 1.191406 -34.765625 1.015625 -34.96875 1.015625 -35.375 C 1.015625 -35.601562 1.125 -35.742188 1.34375 -35.796875 L 1.53125 -35.796875 L 15.765625 -36.1875 L 18.328125 -36.1875 C 21.359375 -35.976562 23.878906 -34.882812 25.890625 -32.90625 C 27.910156 -30.925781 28.921875 -28.550781 28.921875 -25.78125 C 28.921875 -23.019531 27.929688 -20.507812 25.953125 -18.25 C 25.085938 -17.257812 24.113281 -16.453125 23.03125 -15.828125 C 21.945312 -15.210938 20.878906 -14.894531 19.828125 -14.875 L 12.21875 -15.1875 L 12.015625 -15.1875 C 11.753906 -15.1875 11.625 -15.066406 11.625 -14.828125 L 11.625 -4.390625 C 11.625 -3.460938 11.878906 -2.773438 12.390625 -2.328125 C 12.898438 -1.890625 13.972656 -1.546875 15.609375 -1.296875 C 15.835938 -1.265625 16.195312 -1.207031 16.6875 -1.125 C 17.175781 -1.050781 17.503906 -1.015625 17.671875 -1.015625 C 17.835938 -1.015625 17.921875 -0.945312 17.921875 -0.8125 L 17.921875 -0.203125 C 17.921875 -0.0664062 17.851562 0 17.71875 0 Z M 13.671875 -34.890625 C 13.472656 -34.890625 13.257812 -34.882812 13.03125 -34.875 C 12.8125 -34.863281 12.519531 -34.851562 12.15625 -34.84375 C 11.800781 -34.84375 11.625 -34.707031 11.625 -34.4375 L 11.625 -18.046875 L 11.6875 -17.296875 C 11.726562 -16.941406 11.882812 -16.753906 12.15625 -16.734375 L 14.75 -16.578125 C 17.476562 -16.578125 19.675781 -17.488281 21.34375 -19.3125 C 23.007812 -21.144531 23.84375 -23.445312 23.84375 -26.21875 C 23.84375 -28.988281 23.035156 -31.132812 21.421875 -32.65625 C 19.804688 -34.175781 17.648438 -34.9375 14.953125 -34.9375 C 14.710938 -34.9375 14.488281 -34.929688 14.28125 -34.921875 C 14.082031 -34.910156 13.878906 -34.898438 13.671875 -34.890625 Z M 13.671875 -34.890625 "/></g></g></g><g fill="#ffffff" fill-opacity="1"><g transform="translate(738.280771, 169.849969)"><g><path d="M 13.359375 0 C 12.785156 0 12.5 -0.171875 12.5 -0.515625 L 12.5 -0.765625 C 12.5 -1.035156 12.742188 -1.195312 13.234375 -1.25 C 13.734375 -1.3125 14.0625 -1.351562 14.21875 -1.375 C 15.507812 -1.507812 16.414062 -1.828125 16.9375 -2.328125 C 17.457031 -2.828125 17.71875 -3.578125 17.71875 -4.578125 L 17.71875 -12.96875 C 17.71875 -13.09375 17.691406 -13.222656 17.640625 -13.359375 L 7.265625 -29.90625 C 5.640625 -32.5 4.03125 -33.988281 2.4375 -34.375 C 2.351562 -34.394531 2.203125 -34.429688 1.984375 -34.484375 C 1.765625 -34.535156 1.273438 -34.617188 0.515625 -34.734375 C 0.242188 -34.785156 0.109375 -34.972656 0.109375 -35.296875 C 0.109375 -35.628906 0.234375 -35.796875 0.484375 -35.796875 L 15 -35.796875 C 15.289062 -35.796875 15.4375 -35.625 15.4375 -35.28125 C 15.4375 -34.945312 15.289062 -34.78125 15 -34.78125 C 13.875 -34.664062 13.125 -34.550781 12.75 -34.4375 C 11.90625 -34.125 11.484375 -33.582031 11.484375 -32.8125 C 11.484375 -32.40625 11.582031 -32.039062 11.78125 -31.71875 L 20.359375 -18 C 20.546875 -17.726562 20.660156 -17.554688 20.703125 -17.484375 C 20.742188 -17.410156 20.835938 -17.375 20.984375 -17.375 C 21.128906 -17.375 21.351562 -17.617188 21.65625 -18.109375 L 28.515625 -29.765625 C 28.710938 -30.171875 28.941406 -30.601562 29.203125 -31.0625 C 29.472656 -31.53125 29.609375 -32.007812 29.609375 -32.5 C 29.609375 -33.738281 28.757812 -34.46875 27.0625 -34.6875 C 26.457031 -34.769531 26.128906 -34.859375 26.078125 -34.953125 C 26.023438 -35.054688 26 -35.1875 26 -35.34375 C 26 -35.644531 26.144531 -35.796875 26.4375 -35.796875 L 38.296875 -35.796875 C 38.523438 -35.796875 38.640625 -35.675781 38.640625 -35.4375 C 38.640625 -35.207031 38.601562 -35.050781 38.53125 -34.96875 C 38.457031 -34.882812 38.351562 -34.816406 38.21875 -34.765625 C 38.09375 -34.722656 37.953125 -34.691406 37.796875 -34.671875 C 37.648438 -34.648438 37.320312 -34.578125 36.8125 -34.453125 C 35.632812 -34.171875 34.347656 -33.234375 32.953125 -31.640625 C 32.804688 -31.453125 32.722656 -31.34375 32.703125 -31.3125 L 22.671875 -14.046875 L 22.671875 -4.578125 C 22.671875 -3.660156 22.925781 -2.9375 23.4375 -2.40625 C 23.957031 -1.882812 24.832031 -1.539062 26.0625 -1.375 C 27.289062 -1.21875 27.90625 -1.019531 27.90625 -0.78125 L 27.90625 -0.515625 C 27.90625 -0.171875 27.617188 0 27.046875 0 Z M 13.359375 0 "/></g></g></g><g fill="#ffffff" fill-opacity="1"><g transform="translate(364.917762, 221.94996)"><g><path d="M 8.90625 -14.515625 C 10.25 -14.515625 11.441406 -14.191406 12.484375 -13.546875 C 13.535156 -12.910156 14.359375 -12.023438 14.953125 -10.890625 C 15.546875 -9.765625 15.84375 -8.484375 15.84375 -7.046875 C 15.84375 -5.585938 15.539062 -4.285156 14.9375 -3.140625 C 14.34375 -2.003906 13.515625 -1.113281 12.453125 -0.46875 C 11.390625 0.164062 10.1875 0.484375 8.84375 0.484375 C 7.84375 0.484375 6.921875 0.257812 6.078125 -0.1875 C 5.242188 -0.644531 4.535156 -1.269531 3.953125 -2.0625 L 3.953125 0 L 1.921875 0 L 1.921875 -21.78125 L 3.953125 -21.78125 L 3.953125 -11.9375 C 4.535156 -12.757812 5.25 -13.394531 6.09375 -13.84375 C 6.945312 -14.289062 7.882812 -14.515625 8.90625 -14.515625 Z M 8.90625 -1.375 C 9.84375 -1.375 10.679688 -1.613281 11.421875 -2.09375 C 12.171875 -2.570312 12.753906 -3.242188 13.171875 -4.109375 C 13.585938 -4.972656 13.796875 -5.953125 13.796875 -7.046875 C 13.796875 -8.128906 13.585938 -9.09375 13.171875 -9.9375 C 12.753906 -10.789062 12.171875 -11.457031 11.421875 -11.9375 C 10.679688 -12.414062 9.84375 -12.65625 8.90625 -12.65625 C 7.945312 -12.65625 7.09375 -12.414062 6.34375 -11.9375 C 5.59375 -11.457031 5.003906 -10.785156 4.578125 -9.921875 C 4.160156 -9.066406 3.953125 -8.097656 3.953125 -7.015625 C 3.953125 -5.941406 4.160156 -4.972656 4.578125 -4.109375 C 5.003906 -3.242188 5.59375 -2.570312 6.34375 -2.09375 C 7.09375 -1.613281 7.945312 -1.375 8.90625 -1.375 Z M 8.90625 -1.375 "/></g></g></g><g fill="#ffffff" fill-opacity="1"><g transform="translate(384.147738, 221.94996)"><g><path d="M 11.546875 -14.046875 L 13.46875 -14.046875 L 5.875 6 L 3.84375 6 L 6.0625 0.265625 L 0.296875 -14.046875 L 2.4375 -14.046875 L 7.078125 -2.40625 Z M 11.546875 -14.046875 "/></g></g></g><g fill="#ffffff" fill-opacity="1"><g transform="translate(400.017717, 221.94996)"><g/></g></g><g fill="#ffffff" fill-opacity="1"><g transform="translate(409.107712, 221.94996)"><g><path d="M 8.578125 -14.515625 C 9.554688 -14.515625 10.460938 -14.3125 11.296875 -13.90625 C 12.128906 -13.507812 12.789062 -12.921875 13.28125 -12.140625 C 13.769531 -11.367188 14.015625 -10.453125 14.015625 -9.390625 L 14.015625 0 L 11.96875 0 L 11.96875 -8.484375 C 11.96875 -11.265625 10.726562 -12.65625 8.25 -12.65625 C 6.8125 -12.65625 5.734375 -12.144531 5.015625 -11.125 C 4.296875 -10.101562 3.9375 -8.734375 3.9375 -7.015625 L 3.9375 0 L 1.890625 0 L 1.890625 -21.78125 L 3.9375 -21.78125 L 3.9375 -11.703125 C 4.414062 -12.597656 5.046875 -13.289062 5.828125 -13.78125 C 6.617188 -14.269531 7.535156 -14.515625 8.578125 -14.515625 Z M 8.578125 -14.515625 "/></g></g></g><g fill="#ffffff" fill-opacity="1"><g transform="translate(427.527698, 221.94996)"><g><path d="M 8.015625 0.484375 C 6.671875 0.484375 5.46875 0.164062 4.40625 -0.46875 C 3.34375 -1.113281 2.507812 -2.007812 1.90625 -3.15625 C 1.3125 -4.3125 1.015625 -5.609375 1.015625 -7.046875 C 1.015625 -8.484375 1.3125 -9.765625 1.90625 -10.890625 C 2.5 -12.023438 3.316406 -12.910156 4.359375 -13.546875 C 5.410156 -14.191406 6.609375 -14.515625 7.953125 -14.515625 C 9.285156 -14.515625 10.484375 -14.191406 11.546875 -13.546875 C 12.609375 -12.910156 13.4375 -12.023438 14.03125 -10.890625 C 14.632812 -9.753906 14.9375 -8.460938 14.9375 -7.015625 C 14.9375 -5.578125 14.640625 -4.285156 14.046875 -3.140625 C 13.460938 -2.003906 12.644531 -1.113281 11.59375 -0.46875 C 10.539062 0.164062 9.347656 0.484375 8.015625 0.484375 Z M 7.953125 -1.375 C 8.910156 -1.375 9.765625 -1.613281 10.515625 -2.09375 C 11.265625 -2.570312 11.847656 -3.242188 12.265625 -4.109375 C 12.691406 -4.972656 12.90625 -5.941406 12.90625 -7.015625 C 12.90625 -8.097656 12.691406 -9.066406 12.265625 -9.921875 C 11.847656 -10.785156 11.265625 -11.457031 10.515625 -11.9375 C 9.765625 -12.414062 8.910156 -12.65625 7.953125 -12.65625 C 7.015625 -12.65625 6.171875 -12.414062 5.421875 -11.9375 C 4.679688 -11.457031 4.101562 -10.789062 3.6875 -9.9375 C 3.269531 -9.09375 3.0625 -8.128906 3.0625 -7.046875 C 3.0625 -5.953125 3.269531 -4.972656 3.6875 -4.109375 C 4.101562 -3.242188 4.679688 -2.570312 5.421875 -2.09375 C 6.171875 -1.613281 7.015625 -1.375 7.953125 -1.375 Z M 7.953125 -1.375 "/></g></g></g><g fill="#ffffff" fill-opacity="1"><g transform="translate(445.857675, 221.94996)"><g><path d="M 2.046875 0 L 2.046875 -21.78125 L 4.078125 -21.78125 L 4.078125 0 Z M 2.046875 0 "/></g></g></g><g fill="#ffffff" fill-opacity="1"><g transform="translate(454.347669, 221.94996)"><g><path d="M 14.9375 -21.78125 L 14.9375 0 L 12.90625 0 L 12.90625 -2.0625 C 12.320312 -1.269531 11.609375 -0.644531 10.765625 -0.1875 C 9.929688 0.257812 9.015625 0.484375 8.015625 0.484375 C 6.671875 0.484375 5.46875 0.164062 4.40625 -0.46875 C 3.34375 -1.113281 2.507812 -2.003906 1.90625 -3.140625 C 1.3125 -4.285156 1.015625 -5.585938 1.015625 -7.046875 C 1.015625 -8.484375 1.3125 -9.765625 1.90625 -10.890625 C 2.5 -12.023438 3.316406 -12.910156 4.359375 -13.546875 C 5.410156 -14.191406 6.609375 -14.515625 7.953125 -14.515625 C 8.972656 -14.515625 9.90625 -14.289062 10.75 -13.84375 C 11.601562 -13.394531 12.320312 -12.757812 12.90625 -11.9375 L 12.90625 -21.78125 Z M 7.953125 -1.375 C 8.910156 -1.375 9.765625 -1.613281 10.515625 -2.09375 C 11.265625 -2.570312 11.847656 -3.242188 12.265625 -4.109375 C 12.691406 -4.972656 12.90625 -5.941406 12.90625 -7.015625 C 12.90625 -8.097656 12.691406 -9.066406 12.265625 -9.921875 C 11.847656 -10.785156 11.265625 -11.457031 10.515625 -11.9375 C 9.765625 -12.414062 8.910156 -12.65625 7.953125 -12.65625 C 7.015625 -12.65625 6.171875 -12.414062 5.421875 -11.9375 C 4.679688 -11.457031 4.101562 -10.789062 3.6875 -9.9375 C 3.269531 -9.09375 3.0625 -8.128906 3.0625 -7.046875 C 3.0625 -5.953125 3.269531 -4.972656 3.6875 -4.109375 C 4.101562 -3.242188 4.679688 -2.570312 5.421875 -2.09375 C 6.171875 -1.613281 7.015625 -1.375 7.953125 -1.375 Z M 7.953125 -1.375 "/></g></g></g><g fill="#ffffff" fill-opacity="1"><g transform="translate(473.577644, 221.94996)"><g><path d="M 3 0 L 3 -14.046875 L 5.046875 -14.046875 L 5.046875 0 Z M 4.015625 -16.765625 C 3.554688 -16.765625 3.171875 -16.925781 2.859375 -17.25 C 2.554688 -17.570312 2.40625 -17.960938 2.40625 -18.421875 C 2.40625 -18.859375 2.554688 -19.234375 2.859375 -19.546875 C 3.171875 -19.859375 3.554688 -20.015625 4.015625 -20.015625 C 4.460938 -20.015625 4.84375 -19.859375 5.15625 -19.546875 C 5.476562 -19.234375 5.640625 -18.847656 5.640625 -18.390625 C 5.640625 -17.953125 5.476562 -17.570312 5.15625 -17.25 C 4.84375 -16.925781 4.460938 -16.765625 4.015625 -16.765625 Z M 4.015625 -16.765625 "/></g></g></g><g fill="#ffffff" fill-opacity="1"><g transform="translate(484.017631, 221.94996)"><g><path d="M 8.578125 -14.515625 C 9.554688 -14.515625 10.460938 -14.3125 11.296875 -13.90625 C 12.128906 -13.507812 12.789062 -12.921875 13.28125 -12.140625 C 13.769531 -11.367188 14.015625 -10.453125 14.015625 -9.390625 L 14.015625 0 L 11.96875 0 L 11.96875 -8.484375 C 11.96875 -11.265625 10.726562 -12.65625 8.25 -12.65625 C 6.8125 -12.65625 5.734375 -12.144531 5.015625 -11.125 C 4.296875 -10.101562 3.9375 -8.734375 3.9375 -7.015625 L 3.9375 0 L 1.890625 0 L 1.890625 -14.046875 L 3.9375 -14.046875 L 3.9375 -11.703125 C 4.414062 -12.597656 5.046875 -13.289062 5.828125 -13.78125 C 6.617188 -14.269531 7.535156 -14.515625 8.578125 -14.515625 Z M 8.578125 -14.515625 "/></g></g></g><g fill="#ffffff" fill-opacity="1"><g transform="translate(502.527612, 221.94996)"><g><path d="M 14.9375 -14.046875 L 14.9375 -0.546875 C 14.9375 0.710938 14.675781 1.835938 14.15625 2.828125 C 13.632812 3.816406 12.90625 4.59375 11.96875 5.15625 C 11.03125 5.71875 9.960938 6 8.765625 6 L 2.9375 6 L 2.9375 4.140625 L 8.765625 4.140625 C 9.984375 4.140625 10.976562 3.695312 11.75 2.8125 C 12.519531 1.9375 12.90625 0.816406 12.90625 -0.546875 L 12.90625 -2.0625 C 12.320312 -1.269531 11.609375 -0.644531 10.765625 -0.1875 C 9.929688 0.257812 9.015625 0.484375 8.015625 0.484375 C 6.671875 0.484375 5.46875 0.164062 4.40625 -0.46875 C 3.34375 -1.113281 2.507812 -2.003906 1.90625 -3.140625 C 1.3125 -4.285156 1.015625 -5.585938 1.015625 -7.046875 C 1.015625 -8.484375 1.3125 -9.765625 1.90625 -10.890625 C 2.5 -12.023438 3.316406 -12.910156 4.359375 -13.546875 C 5.410156 -14.191406 6.609375 -14.515625 7.953125 -14.515625 C 8.972656 -14.515625 9.90625 -14.289062 10.75 -13.84375 C 11.601562 -13.394531 12.320312 -12.757812 12.90625 -11.9375 L 12.90625 -14.046875 Z M 7.953125 -1.375 C 8.910156 -1.375 9.765625 -1.613281 10.515625 -2.09375 C 11.265625 -2.570312 11.847656 -3.242188 12.265625 -4.109375 C 12.691406 -4.972656 12.90625 -5.941406 12.90625 -7.015625 C 12.90625 -8.097656 12.691406 -9.066406 12.265625 -9.921875 C 11.847656 -10.785156 11.265625 -11.457031 10.515625 -11.9375 C 9.765625 -12.414062 8.910156 -12.65625 7.953125 -12.65625 C 7.015625 -12.65625 6.171875 -12.414062 5.421875 -11.9375 C 4.679688 -11.457031 4.101562 -10.789062 3.6875 -9.9375 C 3.269531 -9.09375 3.0625 -8.128906 3.0625 -7.046875 C 3.0625 -5.953125 3.269531 -4.972656 3.6875 -4.109375 C 4.101562 -3.242188 4.679688 -2.570312 5.421875 -2.09375 C 6.171875 -1.613281 7.015625 -1.375 7.953125 -1.375 Z M 7.953125 -1.375 "/></g></g></g><g fill="#ffffff" fill-opacity="1"><g transform="translate(521.757588, 221.94996)"><g/></g></g><g fill="#ffffff" fill-opacity="1"><g transform="translate(530.847584, 221.94996)"><g><path d="M 15.09375 0 L 12.984375 -5.734375 L 4.5 -5.734375 L 2.609375 0 L 0.359375 0 L 7.625 -20.453125 L 9.71875 -20.453125 L 17.1875 0 Z M 5.1875 -7.59375 L 12.296875 -7.59375 L 8.640625 -17.515625 Z M 5.1875 -7.59375 "/></g></g></g><g fill="#ffffff" fill-opacity="1"><g transform="translate(550.797564, 221.94996)"><g><path d="M 1.65625 0 L 1.65625 -1.984375 L 3.625 -1.984375 L 3.625 -18.484375 L 1.65625 -18.484375 L 1.65625 -20.453125 L 7.859375 -20.453125 L 7.859375 -18.484375 L 5.875 -18.484375 L 5.875 -1.984375 L 7.859375 -1.984375 L 7.859375 0 Z M 1.65625 0 "/></g></g></g><g fill="#ffffff" fill-opacity="1"><g transform="translate(562.707544, 221.94996)"><g><path d="M 1.34375 -20.453125 L 13.703125 -20.453125 L 6.390625 0 L 4.3125 0 L 10.921875 -18.359375 L 1.34375 -18.359375 Z M 1.34375 -20.453125 "/></g></g></g><g fill="#ffffff" fill-opacity="1"><g transform="translate(579.117547, 221.94996)"><g/></g></g><g fill="#ffffff" fill-opacity="1"><g transform="translate(588.207543, 221.94996)"><g><path d="M 1.65625 0 L 1.65625 -1.984375 L 3.625 -1.984375 L 3.625 -18.484375 L 1.65625 -18.484375 L 1.65625 -20.453125 L 7.859375 -20.453125 L 7.859375 -18.484375 L 5.875 -18.484375 L 5.875 -1.984375 L 7.859375 -1.984375 L 7.859375 0 Z M 1.65625 0 "/></g></g></g><g fill="#ffffff" fill-opacity="1"><g transform="translate(600.117523, 221.94996)"><g><path d="M 8.578125 -14.515625 C 9.554688 -14.515625 10.460938 -14.3125 11.296875 -13.90625 C 12.128906 -13.507812 12.789062 -12.921875 13.28125 -12.140625 C 13.769531 -11.367188 14.015625 -10.453125 14.015625 -9.390625 L 14.015625 0 L 11.96875 0 L 11.96875 -8.484375 C 11.96875 -11.265625 10.726562 -12.65625 8.25 -12.65625 C 6.8125 -12.65625 5.734375 -12.144531 5.015625 -11.125 C 4.296875 -10.101562 3.9375 -8.734375 3.9375 -7.015625 L 3.9375 0 L 1.890625 0 L 1.890625 -14.046875 L 3.9375 -14.046875 L 3.9375 -11.703125 C 4.414062 -12.597656 5.046875 -13.289062 5.828125 -13.78125 C 6.617188 -14.269531 7.535156 -14.515625 8.578125 -14.515625 Z M 8.578125 -14.515625 "/></g></g></g><g fill="#ffffff" fill-opacity="1"><g transform="translate(618.627493, 221.94996)"><g><path d="M 14.9375 -21.78125 L 14.9375 0 L 12.90625 0 L 12.90625 -2.0625 C 12.320312 -1.269531 11.609375 -0.644531 10.765625 -0.1875 C 9.929688 0.257812 9.015625 0.484375 8.015625 0.484375 C 6.671875 0.484375 5.46875 0.164062 4.40625 -0.46875 C 3.34375 -1.113281 2.507812 -2.003906 1.90625 -3.140625 C 1.3125 -4.285156 1.015625 -5.585938 1.015625 -7.046875 C 1.015625 -8.484375 1.3125 -9.765625 1.90625 -10.890625 C 2.5 -12.023438 3.316406 -12.910156 4.359375 -13.546875 C 5.410156 -14.191406 6.609375 -14.515625 7.953125 -14.515625 C 8.972656 -14.515625 9.90625 -14.289062 10.75 -13.84375 C 11.601562 -13.394531 12.320312 -12.757812 12.90625 -11.9375 L 12.90625 -21.78125 Z M 7.953125 -1.375 C 8.910156 -1.375 9.765625 -1.613281 10.515625 -2.09375 C 11.265625 -2.570312 11.847656 -3.242188 12.265625 -4.109375 C 12.691406 -4.972656 12.90625 -5.941406 12.90625 -7.015625 C 12.90625 -8.097656 12.691406 -9.066406 12.265625 -9.921875 C 11.847656 -10.785156 11.265625 -11.457031 10.515625 -11.9375 C 9.765625 -12.414062 8.910156 -12.65625 7.953125 -12.65625 C 7.015625 -12.65625 6.171875 -12.414062 5.421875 -11.9375 C 4.679688 -11.457031 4.101562 -10.789062 3.6875 -9.9375 C 3.269531 -9.09375 3.0625 -8.128906 3.0625 -7.046875 C 3.0625 -5.953125 3.269531 -4.972656 3.6875 -4.109375 C 4.101562 -3.242188 4.679688 -2.570312 5.421875 -2.09375 C 6.171875 -1.613281 7.015625 -1.375 7.953125 -1.375 Z M 7.953125 -1.375 "/></g></g></g><g fill="#ffffff" fill-opacity="1"><g transform="translate(637.85748, 221.94996)"><g><path d="M 7.953125 -14.515625 C 9.210938 -14.515625 10.351562 -14.203125 11.375 -13.578125 C 12.394531 -12.960938 13.191406 -12.117188 13.765625 -11.046875 C 14.347656 -9.984375 14.640625 -8.789062 14.640625 -7.46875 C 14.640625 -7.09375 14.628906 -6.800781 14.609375 -6.59375 L 3.0625 -6.59375 C 3.144531 -5.15625 3.613281 -3.925781 4.46875 -2.90625 C 5.332031 -1.882812 6.503906 -1.375 7.984375 -1.375 C 9.179688 -1.375 10.175781 -1.597656 10.96875 -2.046875 C 11.757812 -2.503906 12.394531 -3.132812 12.875 -3.9375 L 14.484375 -2.84375 C 13.828125 -1.8125 12.957031 -1 11.875 -0.40625 C 10.800781 0.1875 9.523438 0.484375 8.046875 0.484375 C 6.679688 0.484375 5.46875 0.164062 4.40625 -0.46875 C 3.34375 -1.113281 2.507812 -2.003906 1.90625 -3.140625 C 1.3125 -4.285156 1.015625 -5.578125 1.015625 -7.015625 C 1.015625 -8.460938 1.3125 -9.753906 1.90625 -10.890625 C 2.5 -12.023438 3.316406 -12.910156 4.359375 -13.546875 C 5.410156 -14.191406 6.609375 -14.515625 7.953125 -14.515625 Z M 12.59375 -8.28125 C 12.394531 -9.738281 11.90625 -10.832031 11.125 -11.5625 C 10.34375 -12.289062 9.285156 -12.65625 7.953125 -12.65625 C 6.648438 -12.65625 5.582031 -12.238281 4.75 -11.40625 C 3.925781 -10.582031 3.40625 -9.539062 3.1875 -8.28125 Z M 12.59375 -8.28125 "/></g></g></g><g fill="#ffffff" fill-opacity="1"><g transform="translate(656.007465, 221.94996)"><g><path d="M 12.90625 0 L 10.5625 0 L 6.90625 -5.84375 L 3.234375 0 L 0.953125 0 L 5.453125 -7.203125 L 1.234375 -14.046875 L 3.546875 -14.046875 L 6.9375 -8.515625 L 10.5 -14.046875 L 12.75 -14.046875 L 8.34375 -7.234375 Z M 12.90625 0 "/></g></g></g><g fill="#ffffff" fill-opacity="1"><g transform="translate(672.267459, 221.94996)"><g/></g></g><g fill="#ffffff" fill-opacity="1"><g transform="translate(681.357454, 221.94996)"><g><path d="M 2.640625 0 L 2.640625 -12.1875 L 0.234375 -12.1875 L 0.234375 -14.046875 L 2.640625 -14.046875 L 2.640625 -18.6875 L 4.6875 -18.6875 L 4.6875 -14.046875 L 7.921875 -14.046875 L 7.921875 -12.1875 L 4.6875 -12.1875 L 4.6875 0 Z M 2.640625 0 "/></g></g></g><g fill="#ffffff" fill-opacity="1"><g transform="translate(692.007417, 221.94996)"><g><path d="M 8.015625 0.484375 C 6.671875 0.484375 5.46875 0.164062 4.40625 -0.46875 C 3.34375 -1.113281 2.507812 -2.007812 1.90625 -3.15625 C 1.3125 -4.3125 1.015625 -5.609375 1.015625 -7.046875 C 1.015625 -8.484375 1.3125 -9.765625 1.90625 -10.890625 C 2.5 -12.023438 3.316406 -12.910156 4.359375 -13.546875 C 5.410156 -14.191406 6.609375 -14.515625 7.953125 -14.515625 C 9.285156 -14.515625 10.484375 -14.191406 11.546875 -13.546875 C 12.609375 -12.910156 13.4375 -12.023438 14.03125 -10.890625 C 14.632812 -9.753906 14.9375 -8.460938 14.9375 -7.015625 C 14.9375 -5.578125 14.640625 -4.285156 14.046875 -3.140625 C 13.460938 -2.003906 12.644531 -1.113281 11.59375 -0.46875 C 10.539062 0.164062 9.347656 0.484375 8.015625 0.484375 Z M 7.953125 -1.375 C 8.910156 -1.375 9.765625 -1.613281 10.515625 -2.09375 C 11.265625 -2.570312 11.847656 -3.242188 12.265625 -4.109375 C 12.691406 -4.972656 12.90625 -5.941406 12.90625 -7.015625 C 12.90625 -8.097656 12.691406 -9.066406 12.265625 -9.921875 C 11.847656 -10.785156 11.265625 -11.457031 10.515625 -11.9375 C 9.765625 -12.414062 8.910156 -12.65625 7.953125 -12.65625 C 7.015625 -12.65625 6.171875 -12.414062 5.421875 -11.9375 C 4.679688 -11.457031 4.101562 -10.789062 3.6875 -9.9375 C 3.269531 -9.09375 3.0625 -8.128906 3.0625 -7.046875 C 3.0625 -5.953125 3.269531 -4.972656 3.6875 -4.109375 C 4.101562 -3.242188 4.679688 -2.570312 5.421875 -2.09375 C 6.171875 -1.613281 7.015625 -1.375 7.953125 -1.375 Z M 7.953125 -1.375 "/></g></g></g><g fill="#ffffff" fill-opacity="1"><g transform="translate(710.337417, 221.94996)"><g><path d="M 10.5625 0 L 5.640625 -7.234375 L 3.9375 -5.578125 L 3.9375 0 L 1.890625 0 L 1.890625 -21.78125 L 3.9375 -21.78125 L 3.9375 -8.15625 L 10.078125 -14.046875 L 12.71875 -14.046875 L 7.046875 -8.578125 L 12.84375 0 Z M 10.5625 0 "/></g></g></g><g fill="#ffffff" fill-opacity="1"><g transform="translate(725.817382, 221.94996)"><g><path d="M 7.953125 -14.515625 C 9.210938 -14.515625 10.351562 -14.203125 11.375 -13.578125 C 12.394531 -12.960938 13.191406 -12.117188 13.765625 -11.046875 C 14.347656 -9.984375 14.640625 -8.789062 14.640625 -7.46875 C 14.640625 -7.09375 14.628906 -6.800781 14.609375 -6.59375 L 3.0625 -6.59375 C 3.144531 -5.15625 3.613281 -3.925781 4.46875 -2.90625 C 5.332031 -1.882812 6.503906 -1.375 7.984375 -1.375 C 9.179688 -1.375 10.175781 -1.597656 10.96875 -2.046875 C 11.757812 -2.503906 12.394531 -3.132812 12.875 -3.9375 L 14.484375 -2.84375 C 13.828125 -1.8125 12.957031 -1 11.875 -0.40625 C 10.800781 0.1875 9.523438 0.484375 8.046875 0.484375 C 6.679688 0.484375 5.46875 0.164062 4.40625 -0.46875 C 3.34375 -1.113281 2.507812 -2.003906 1.90625 -3.140625 C 1.3125 -4.285156 1.015625 -5.578125 1.015625 -7.015625 C 1.015625 -8.460938 1.3125 -9.753906 1.90625 -10.890625 C 2.5 -12.023438 3.316406 -12.910156 4.359375 -13.546875 C 5.410156 -14.191406 6.609375 -14.515625 7.953125 -14.515625 Z M 12.59375 -8.28125 C 12.394531 -9.738281 11.90625 -10.832031 11.125 -11.5625 C 10.34375 -12.289062 9.285156 -12.65625 7.953125 -12.65625 C 6.648438 -12.65625 5.582031 -12.238281 4.75 -11.40625 C 3.925781 -10.582031 3.40625 -9.539062 3.1875 -8.28125 Z M 12.59375 -8.28125 "/></g></g></g><g fill="#ffffff" fill-opacity="1"><g transform="translate(743.96739, 221.94996)"><g><path d="M 8.578125 -14.515625 C 9.554688 -14.515625 10.460938 -14.3125 11.296875 -13.90625 C 12.128906 -13.507812 12.789062 -12.921875 13.28125 -12.140625 C 13.769531 -11.367188 14.015625 -10.453125 14.015625 -9.390625 L 14.015625 0 L 11.96875 0 L 11.96875 -8.484375 C 11.96875 -11.265625 10.726562 -12.65625 8.25 -12.65625 C 6.8125 -12.65625 5.734375 -12.144531 5.015625 -11.125 C 4.296875 -10.101562 3.9375 -8.734375 3.9375 -7.015625 L 3.9375 0 L 1.890625 0 L 1.890625 -14.046875 L 3.9375 -14.046875 L 3.9375 -11.703125 C 4.414062 -12.597656 5.046875 -13.289062 5.828125 -13.78125 C 6.617188 -14.269531 7.535156 -14.515625 8.578125 -14.515625 Z M 8.578125 -14.515625 "/></g></g></g><g fill="#ffffff" fill-opacity="1"><g transform="translate(341.664161, 269.179523)"><g><path d="M 9.640625 0 L 8.296875 0 L 7.296875 -2.9375 L 2.734375 -2.9375 L 1.75 0 L 0.421875 0 L 4.15625 -10.703125 L 5.90625 -10.703125 Z M 4.921875 -9.40625 L 3.09375 -3.984375 L 6.9375 -3.984375 L 5.109375 -9.40625 Z M 4.921875 -9.40625 "/></g></g><g transform="translate(351.727637, 269.179523)"><g><path d="M 2.875 0 L 1.625 0 L 1.625 -10.703125 L 2.875 -10.703125 Z M 2.875 0 "/></g></g><g transform="translate(356.232032, 269.179523)"><g><path d="M 2.90625 0 L 1.6875 0 L 5.65625 -9.484375 L 5.625 -9.640625 L 0.390625 -9.640625 L 0.390625 -10.703125 L 6.921875 -10.703125 L 6.921875 -9.546875 Z M 2.90625 0 "/></g></g><g transform="translate(363.629492, 269.179523)"><g/></g><g transform="translate(367.30625, 269.179523)"><g><path d="M 2.875 0 L 1.625 0 L 1.625 -10.703125 L 2.875 -10.703125 Z M 2.875 0 "/></g></g><g transform="translate(371.810644, 269.179523)"><g><path d="M 1.40625 0 L 1.40625 -8.078125 L 2.546875 -8.078125 L 2.546875 -6.8125 L 2.703125 -6.78125 C 2.960938 -7.25 3.300781 -7.609375 3.71875 -7.859375 C 4.132812 -8.109375 4.644531 -8.234375 5.25 -8.234375 C 6.21875 -8.234375 6.921875 -7.984375 7.359375 -7.484375 C 7.796875 -6.992188 8.015625 -6.234375 8.015625 -5.203125 L 8.015625 0 L 6.828125 0 L 6.828125 -5.171875 C 6.828125 -5.660156 6.765625 -6.050781 6.640625 -6.34375 C 6.515625 -6.644531 6.320312 -6.859375 6.0625 -6.984375 C 5.800781 -7.117188 5.457031 -7.1875 5.03125 -7.1875 C 4.300781 -7.1875 3.710938 -6.945312 3.265625 -6.46875 C 2.816406 -5.988281 2.59375 -5.210938 2.59375 -4.140625 L 2.59375 0 Z M 1.40625 0 "/></g></g><g transform="translate(381.112401, 269.179523)"><g><path d="M 4.1875 0.15625 C 3.539062 0.15625 2.96875 0 2.46875 -0.3125 C 1.976562 -0.625 1.59375 -1.09375 1.3125 -1.71875 C 1.03125 -2.34375 0.890625 -3.113281 0.890625 -4.03125 C 0.890625 -4.957031 1.035156 -5.734375 1.328125 -6.359375 C 1.617188 -6.984375 2.019531 -7.453125 2.53125 -7.765625 C 3.050781 -8.078125 3.648438 -8.234375 4.328125 -8.234375 C 4.867188 -8.234375 5.351562 -8.128906 5.78125 -7.921875 C 6.207031 -7.722656 6.578125 -7.390625 6.890625 -6.921875 L 7.03125 -6.953125 L 7.03125 -11.328125 L 8.234375 -11.328125 L 8.234375 0 L 7.03125 0 L 7.03125 -1.171875 L 6.890625 -1.203125 C 6.617188 -0.804688 6.257812 -0.476562 5.8125 -0.21875 C 5.363281 0.03125 4.820312 0.15625 4.1875 0.15625 Z M 4.5625 -0.921875 C 5.3125 -0.921875 5.910156 -1.175781 6.359375 -1.6875 C 6.804688 -2.207031 7.03125 -2.988281 7.03125 -4.03125 C 7.03125 -5.09375 6.804688 -5.878906 6.359375 -6.390625 C 5.910156 -6.898438 5.3125 -7.15625 4.5625 -7.15625 C 3.789062 -7.15625 3.191406 -6.90625 2.765625 -6.40625 C 2.347656 -5.90625 2.140625 -5.113281 2.140625 -4.03125 C 2.140625 -1.957031 2.945312 -0.921875 4.5625 -0.921875 Z M 4.5625 -0.921875 "/></g></g><g transform="translate(390.758397, 269.179523)"><g><path d="M 7.703125 -3.765625 L 2.140625 -3.765625 C 2.179688 -2.785156 2.421875 -2.066406 2.859375 -1.609375 C 3.296875 -1.148438 3.894531 -0.921875 4.65625 -0.921875 C 5.226562 -0.921875 5.6875 -1.019531 6.03125 -1.21875 C 6.382812 -1.425781 6.664062 -1.75 6.875 -2.1875 L 7.03125 -2.1875 L 7.796875 -1.734375 C 7.566406 -1.140625 7.191406 -0.675781 6.671875 -0.34375 C 6.160156 -0.0078125 5.488281 0.15625 4.65625 0.15625 C 3.875 0.15625 3.203125 0.00390625 2.640625 -0.296875 C 2.078125 -0.609375 1.644531 -1.078125 1.34375 -1.703125 C 1.039062 -2.328125 0.890625 -3.101562 0.890625 -4.03125 C 0.890625 -4.945312 1.046875 -5.71875 1.359375 -6.34375 C 1.679688 -6.976562 2.117188 -7.453125 2.671875 -7.765625 C 3.234375 -8.078125 3.867188 -8.234375 4.578125 -8.234375 C 5.609375 -8.234375 6.414062 -7.941406 7 -7.359375 C 7.582031 -6.773438 7.875 -5.910156 7.875 -4.765625 C 7.875 -4.316406 7.867188 -4.015625 7.859375 -3.859375 Z M 6.703125 -4.765625 C 6.679688 -5.617188 6.488281 -6.238281 6.125 -6.625 C 5.769531 -7.019531 5.253906 -7.21875 4.578125 -7.21875 C 3.867188 -7.21875 3.3125 -7.019531 2.90625 -6.625 C 2.507812 -6.238281 2.265625 -5.617188 2.171875 -4.765625 Z M 6.703125 -4.765625 "/></g></g></g><g fill="#ffffff" fill-opacity="1"><g transform="translate(399.247166, 269.179523)"><g><path d="M 1.6875 0 L 0.359375 0 L 2.859375 -4.1875 L 0.484375 -8.078125 L 1.84375 -8.078125 L 3.703125 -4.96875 L 3.875 -4.96875 L 5.75 -8.078125 L 7.03125 -8.078125 L 4.71875 -4.1875 L 7.15625 0 L 5.8125 0 L 3.828125 -3.40625 L 3.65625 -3.40625 Z M 1.6875 0 "/></g></g><g transform="translate(406.776462, 269.179523)"><g/></g><g transform="translate(410.45322, 269.179523)"><g><path d="M 9.359375 -5.125 L 5.9375 -1.6875 L 5.25 -2.375 L 7.421875 -4.5625 L 7.359375 -4.6875 L 0.765625 -4.6875 L 0.765625 -5.703125 L 7.359375 -5.703125 L 7.421875 -5.84375 L 5.25 -8.03125 L 5.9375 -8.71875 L 9.359375 -5.28125 Z M 9.359375 -5.125 "/></g></g><g transform="translate(420.399508, 269.179523)"><g/></g><g transform="translate(424.076266, 269.179523)"><g><path d="M 1.625 0 L 1.625 -10.703125 L 5.515625 -10.703125 C 6.222656 -10.703125 6.820312 -10.582031 7.3125 -10.34375 C 7.800781 -10.113281 8.164062 -9.78125 8.40625 -9.34375 C 8.65625 -8.914062 8.78125 -8.40625 8.78125 -7.8125 C 8.78125 -7.144531 8.613281 -6.59375 8.28125 -6.15625 C 7.945312 -5.726562 7.429688 -5.410156 6.734375 -5.203125 L 6.734375 -5.046875 C 7.078125 -4.910156 7.359375 -4.695312 7.578125 -4.40625 C 7.796875 -4.113281 8 -3.675781 8.1875 -3.09375 L 9.171875 0 L 7.875 0 L 6.8125 -3.28125 C 6.6875 -3.664062 6.539062 -3.96875 6.375 -4.1875 C 6.207031 -4.40625 5.992188 -4.5625 5.734375 -4.65625 C 5.484375 -4.757812 5.164062 -4.8125 4.78125 -4.8125 L 2.875 -4.8125 L 2.875 0 Z M 5.484375 -5.875 C 6.148438 -5.875 6.644531 -6.023438 6.96875 -6.328125 C 7.300781 -6.640625 7.46875 -7.113281 7.46875 -7.75 C 7.46875 -8.382812 7.300781 -8.859375 6.96875 -9.171875 C 6.644531 -9.484375 6.148438 -9.640625 5.484375 -9.640625 L 2.875 -9.640625 L 2.875 -5.875 Z M 5.484375 -5.875 "/></g></g></g><g fill="#ffffff" fill-opacity="1"><g transform="translate(433.780855, 269.179523)"><g><path d="M 4.640625 0.15625 C 3.878906 0.15625 3.210938 -0.00390625 2.640625 -0.328125 C 2.078125 -0.648438 1.644531 -1.125 1.34375 -1.75 C 1.039062 -2.382812 0.890625 -3.144531 0.890625 -4.03125 C 0.890625 -4.925781 1.039062 -5.6875 1.34375 -6.3125 C 1.644531 -6.945312 2.078125 -7.425781 2.640625 -7.75 C 3.210938 -8.070312 3.878906 -8.234375 4.640625 -8.234375 C 5.398438 -8.234375 6.0625 -8.070312 6.625 -7.75 C 7.1875 -7.425781 7.617188 -6.945312 7.921875 -6.3125 C 8.234375 -5.6875 8.390625 -4.925781 8.390625 -4.03125 C 8.390625 -3.144531 8.234375 -2.382812 7.921875 -1.75 C 7.617188 -1.125 7.1875 -0.648438 6.625 -0.328125 C 6.0625 -0.00390625 5.398438 0.15625 4.640625 0.15625 Z M 4.640625 -0.921875 C 5.441406 -0.921875 6.054688 -1.171875 6.484375 -1.671875 C 6.910156 -2.179688 7.125 -2.96875 7.125 -4.03125 C 7.125 -5.101562 6.910156 -5.890625 6.484375 -6.390625 C 6.054688 -6.898438 5.441406 -7.15625 4.640625 -7.15625 C 3.828125 -7.15625 3.207031 -6.898438 2.78125 -6.390625 C 2.351562 -5.878906 2.140625 -5.09375 2.140625 -4.03125 C 2.140625 -2.96875 2.351562 -2.179688 2.78125 -1.671875 C 3.207031 -1.171875 3.828125 -0.921875 4.640625 -0.921875 Z M 4.640625 -0.921875 "/></g></g><g transform="translate(443.053315, 269.179523)"><g><path d="M 3.984375 0.15625 C 3.078125 0.15625 2.398438 -0.0820312 1.953125 -0.5625 C 1.503906 -1.050781 1.28125 -1.765625 1.28125 -2.703125 L 1.28125 -8.078125 L 2.46875 -8.078125 L 2.46875 -2.71875 C 2.46875 -1.5 3.046875 -0.890625 4.203125 -0.890625 C 4.929688 -0.890625 5.507812 -1.128906 5.9375 -1.609375 C 6.363281 -2.085938 6.578125 -2.863281 6.578125 -3.9375 L 6.578125 -8.078125 L 7.765625 -8.078125 L 7.765625 0 L 6.640625 0 L 6.640625 -1.265625 L 6.484375 -1.296875 C 6.210938 -0.804688 5.878906 -0.441406 5.484375 -0.203125 C 5.097656 0.0351562 4.597656 0.15625 3.984375 0.15625 Z M 3.984375 0.15625 "/></g></g><g transform="translate(452.230561, 269.179523)"><g><path d="M 1.40625 0 L 1.40625 -8.078125 L 2.546875 -8.078125 L 2.546875 -6.8125 L 2.703125 -6.78125 C 2.960938 -7.25 3.300781 -7.609375 3.71875 -7.859375 C 4.132812 -8.109375 4.644531 -8.234375 5.25 -8.234375 C 6.21875 -8.234375 6.921875 -7.984375 7.359375 -7.484375 C 7.796875 -6.992188 8.015625 -6.234375 8.015625 -5.203125 L 8.015625 0 L 6.828125 0 L 6.828125 -5.171875 C 6.828125 -5.660156 6.765625 -6.050781 6.640625 -6.34375 C 6.515625 -6.644531 6.320312 -6.859375 6.0625 -6.984375 C 5.800781 -7.117188 5.457031 -7.1875 5.03125 -7.1875 C 4.300781 -7.1875 3.710938 -6.945312 3.265625 -6.46875 C 2.816406 -5.988281 2.59375 -5.210938 2.59375 -4.140625 L 2.59375 0 Z M 1.40625 0 "/></g></g><g transform="translate(461.532318, 269.179523)"><g><path d="M 4.1875 0.15625 C 3.539062 0.15625 2.96875 0 2.46875 -0.3125 C 1.976562 -0.625 1.59375 -1.09375 1.3125 -1.71875 C 1.03125 -2.34375 0.890625 -3.113281 0.890625 -4.03125 C 0.890625 -4.957031 1.035156 -5.734375 1.328125 -6.359375 C 1.617188 -6.984375 2.019531 -7.453125 2.53125 -7.765625 C 3.050781 -8.078125 3.648438 -8.234375 4.328125 -8.234375 C 4.867188 -8.234375 5.351562 -8.128906 5.78125 -7.921875 C 6.207031 -7.722656 6.578125 -7.390625 6.890625 -6.921875 L 7.03125 -6.953125 L 7.03125 -11.328125 L 8.234375 -11.328125 L 8.234375 0 L 7.03125 0 L 7.03125 -1.171875 L 6.890625 -1.203125 C 6.617188 -0.804688 6.257812 -0.476562 5.8125 -0.21875 C 5.363281 0.03125 4.820312 0.15625 4.1875 0.15625 Z M 4.5625 -0.921875 C 5.3125 -0.921875 5.910156 -1.175781 6.359375 -1.6875 C 6.804688 -2.207031 7.03125 -2.988281 7.03125 -4.03125 C 7.03125 -5.09375 6.804688 -5.878906 6.359375 -6.390625 C 5.910156 -6.898438 5.3125 -7.15625 4.5625 -7.15625 C 3.789062 -7.15625 3.191406 -6.90625 2.765625 -6.40625 C 2.347656 -5.90625 2.140625 -5.113281 2.140625 -4.03125 C 2.140625 -1.957031 2.945312 -0.921875 4.5625 -0.921875 Z M 4.5625 -0.921875 "/></g></g><g transform="translate(471.178314, 269.179523)"><g><path d="M 1.40625 0 L 1.40625 -11.328125 L 2.59375 -11.328125 L 2.59375 -6.921875 L 2.75 -6.90625 C 3.332031 -7.789062 4.164062 -8.234375 5.25 -8.234375 C 6.21875 -8.234375 6.921875 -7.984375 7.359375 -7.484375 C 7.796875 -6.992188 8.015625 -6.234375 8.015625 -5.203125 L 8.015625 0 L 6.828125 0 L 6.828125 -5.171875 C 6.828125 -5.660156 6.765625 -6.050781 6.640625 -6.34375 C 6.515625 -6.644531 6.320312 -6.859375 6.0625 -6.984375 C 5.800781 -7.117188 5.457031 -7.1875 5.03125 -7.1875 C 4.300781 -7.1875 3.710938 -6.945312 3.265625 -6.46875 C 2.816406 -6 2.59375 -5.222656 2.59375 -4.140625 L 2.59375 0 Z M 1.40625 0 "/></g></g><g transform="translate(480.480071, 269.179523)"><g><path d="M 2 -9.640625 C 1.75 -9.640625 1.546875 -9.71875 1.390625 -9.875 C 1.234375 -10.03125 1.15625 -10.234375 1.15625 -10.484375 C 1.15625 -10.722656 1.234375 -10.921875 1.390625 -11.078125 C 1.546875 -11.242188 1.75 -11.328125 2 -11.328125 C 2.257812 -11.328125 2.46875 -11.242188 2.625 -11.078125 C 2.78125 -10.921875 2.859375 -10.722656 2.859375 -10.484375 C 2.859375 -10.234375 2.78125 -10.03125 2.625 -9.875 C 2.46875 -9.71875 2.257812 -9.640625 2 -9.640625 Z M 1.40625 0 L 1.40625 -8.078125 L 2.59375 -8.078125 L 2.59375 0 Z M 1.40625 0 "/></g></g><g transform="translate(484.486418, 269.179523)"><g><path d="M 3.21875 0.15625 C 2.644531 0.15625 2.191406 -0.00390625 1.859375 -0.328125 C 1.535156 -0.660156 1.375 -1.144531 1.375 -1.78125 L 1.375 -11.328125 L 2.578125 -11.328125 L 2.578125 -1.875 C 2.578125 -1.53125 2.640625 -1.285156 2.765625 -1.140625 C 2.890625 -0.992188 3.09375 -0.921875 3.375 -0.921875 C 3.539062 -0.921875 3.707031 -0.945312 3.875 -1 L 3.984375 -0.96875 L 4.109375 -0.03125 C 4.023438 0.03125 3.898438 0.078125 3.734375 0.109375 C 3.578125 0.140625 3.40625 0.15625 3.21875 0.15625 Z M 3.21875 0.15625 "/></g></g><g transform="translate(488.880949, 269.179523)"><g><path d="M 3.21875 0.15625 C 2.644531 0.15625 2.191406 -0.00390625 1.859375 -0.328125 C 1.535156 -0.660156 1.375 -1.144531 1.375 -1.78125 L 1.375 -11.328125 L 2.578125 -11.328125 L 2.578125 -1.875 C 2.578125 -1.53125 2.640625 -1.285156 2.765625 -1.140625 C 2.890625 -0.992188 3.09375 -0.921875 3.375 -0.921875 C 3.539062 -0.921875 3.707031 -0.945312 3.875 -1 L 3.984375 -0.96875 L 4.109375 -0.03125 C 4.023438 0.03125 3.898438 0.078125 3.734375 0.109375 C 3.578125 0.140625 3.40625 0.15625 3.21875 0.15625 Z M 3.21875 0.15625 "/></g></g><g transform="translate(493.27548, 269.179523)"><g/></g><g transform="translate(496.952238, 269.179523)"><g><path d="M 2.78125 0 L 1.625 0 L 1.625 -10.703125 L 3.484375 -10.703125 L 6.734375 -1.640625 L 6.890625 -1.640625 L 10.125 -10.703125 L 11.9375 -10.703125 L 11.9375 0 L 10.734375 0 L 10.734375 -8.734375 L 10.546875 -8.765625 L 7.390625 0 L 6.140625 0 L 2.96875 -8.765625 L 2.78125 -8.734375 Z M 2.78125 0 "/></g></g><g transform="translate(510.509366, 269.179523)"><g><path d="M 3.328125 0.15625 C 2.535156 0.15625 1.914062 -0.0507812 1.46875 -0.46875 C 1.019531 -0.882812 0.796875 -1.476562 0.796875 -2.25 C 0.796875 -2.726562 0.894531 -3.128906 1.09375 -3.453125 C 1.289062 -3.785156 1.597656 -4.054688 2.015625 -4.265625 C 2.429688 -4.472656 2.972656 -4.632812 3.640625 -4.75 C 4.222656 -4.84375 4.664062 -4.953125 4.96875 -5.078125 C 5.28125 -5.203125 5.488281 -5.335938 5.59375 -5.484375 C 5.695312 -5.640625 5.75 -5.832031 5.75 -6.0625 C 5.75 -6.425781 5.625 -6.703125 5.375 -6.890625 C 5.125 -7.085938 4.71875 -7.1875 4.15625 -7.1875 C 3.632812 -7.1875 3.1875 -7.082031 2.8125 -6.875 C 2.4375 -6.675781 2.09375 -6.378906 1.78125 -5.984375 L 1.640625 -5.984375 L 1.0625 -6.8125 C 1.394531 -7.25 1.828125 -7.59375 2.359375 -7.84375 C 2.890625 -8.101562 3.488281 -8.234375 4.15625 -8.234375 C 5.113281 -8.234375 5.816406 -8.023438 6.265625 -7.609375 C 6.710938 -7.191406 6.9375 -6.613281 6.9375 -5.875 L 6.9375 -1.59375 C 6.9375 -1.144531 7.128906 -0.921875 7.515625 -0.921875 C 7.640625 -0.921875 7.757812 -0.941406 7.875 -0.984375 L 7.984375 -0.953125 L 8.125 -0.125 C 8.03125 -0.0625 7.910156 -0.015625 7.765625 0.015625 C 7.628906 0.046875 7.484375 0.0625 7.328125 0.0625 C 6.890625 0.0625 6.554688 -0.0351562 6.328125 -0.234375 C 6.097656 -0.429688 5.953125 -0.71875 5.890625 -1.09375 L 5.734375 -1.109375 C 5.503906 -0.679688 5.191406 -0.363281 4.796875 -0.15625 C 4.410156 0.0507812 3.921875 0.15625 3.328125 0.15625 Z M 3.59375 -0.796875 C 4.039062 -0.796875 4.429688 -0.898438 4.765625 -1.109375 C 5.097656 -1.316406 5.347656 -1.609375 5.515625 -1.984375 C 5.691406 -2.359375 5.78125 -2.789062 5.78125 -3.28125 L 5.78125 -4.3125 L 5.640625 -4.34375 C 5.460938 -4.21875 5.242188 -4.109375 4.984375 -4.015625 C 4.722656 -3.929688 4.363281 -3.859375 3.90625 -3.796875 C 3.4375 -3.734375 3.0625 -3.632812 2.78125 -3.5 C 2.507812 -3.363281 2.3125 -3.195312 2.1875 -3 C 2.070312 -2.800781 2.015625 -2.550781 2.015625 -2.25 C 2.015625 -1.769531 2.15625 -1.40625 2.4375 -1.15625 C 2.71875 -0.914062 3.101562 -0.796875 3.59375 -0.796875 Z M 3.59375 -0.796875 "/></g></g><g transform="translate(518.866299, 269.179523)"><g><path d="M 4.15625 3.421875 C 2.882812 3.421875 1.953125 3.207031 1.359375 2.78125 C 0.773438 2.363281 0.484375 1.800781 0.484375 1.09375 C 0.484375 0.644531 0.617188 0.285156 0.890625 0.015625 C 1.171875 -0.253906 1.570312 -0.445312 2.09375 -0.5625 L 2.09375 -0.71875 C 1.84375 -0.863281 1.65625 -1.03125 1.53125 -1.21875 C 1.40625 -1.40625 1.34375 -1.628906 1.34375 -1.890625 C 1.34375 -2.203125 1.441406 -2.457031 1.640625 -2.65625 C 1.835938 -2.851562 2.132812 -3.003906 2.53125 -3.109375 L 2.53125 -3.265625 C 1.644531 -3.722656 1.203125 -4.472656 1.203125 -5.515625 C 1.203125 -6.046875 1.320312 -6.515625 1.5625 -6.921875 C 1.800781 -7.335938 2.144531 -7.660156 2.59375 -7.890625 C 3.039062 -8.117188 3.554688 -8.234375 4.140625 -8.234375 C 4.816406 -8.234375 5.382812 -8.082031 5.84375 -7.78125 C 6.007812 -7.976562 6.132812 -8.179688 6.21875 -8.390625 C 6.3125 -8.609375 6.367188 -8.859375 6.390625 -9.140625 L 6.546875 -9.234375 L 7.53125 -9 C 7.476562 -8.582031 7.351562 -8.234375 7.15625 -7.953125 C 6.957031 -7.671875 6.679688 -7.4375 6.328125 -7.25 L 6.328125 -7.09375 C 6.578125 -6.894531 6.765625 -6.65625 6.890625 -6.375 C 7.015625 -6.101562 7.078125 -5.78125 7.078125 -5.40625 C 7.078125 -4.90625 6.953125 -4.453125 6.703125 -4.046875 C 6.460938 -3.640625 6.117188 -3.316406 5.671875 -3.078125 C 5.234375 -2.847656 4.722656 -2.734375 4.140625 -2.734375 C 4.078125 -2.734375 3.957031 -2.738281 3.78125 -2.75 C 3.582031 -2.757812 3.4375 -2.765625 3.34375 -2.765625 C 3.09375 -2.765625 2.890625 -2.695312 2.734375 -2.5625 C 2.585938 -2.4375 2.515625 -2.269531 2.515625 -2.0625 C 2.515625 -1.8125 2.59375 -1.625 2.75 -1.5 C 2.914062 -1.382812 3.1875 -1.316406 3.5625 -1.296875 L 5.484375 -1.234375 C 6.304688 -1.203125 6.914062 -1.007812 7.3125 -0.65625 C 7.707031 -0.300781 7.90625 0.195312 7.90625 0.84375 C 7.90625 1.320312 7.773438 1.753906 7.515625 2.140625 C 7.265625 2.535156 6.859375 2.847656 6.296875 3.078125 C 5.734375 3.304688 5.019531 3.421875 4.15625 3.421875 Z M 4.140625 -3.765625 C 4.710938 -3.765625 5.15625 -3.910156 5.46875 -4.203125 C 5.78125 -4.503906 5.9375 -4.925781 5.9375 -5.46875 C 5.9375 -6.019531 5.78125 -6.445312 5.46875 -6.75 C 5.164062 -7.050781 4.722656 -7.203125 4.140625 -7.203125 C 3.566406 -7.203125 3.128906 -7.050781 2.828125 -6.75 C 2.523438 -6.457031 2.375 -6.03125 2.375 -5.46875 C 2.375 -4.925781 2.523438 -4.503906 2.828125 -4.203125 C 3.128906 -3.910156 3.566406 -3.765625 4.140625 -3.765625 Z M 4.15625 2.40625 C 4.75 2.40625 5.234375 2.335938 5.609375 2.203125 C 5.992188 2.066406 6.269531 1.890625 6.4375 1.671875 C 6.601562 1.460938 6.6875 1.222656 6.6875 0.953125 C 6.6875 0.710938 6.640625 0.519531 6.546875 0.375 C 6.460938 0.226562 6.316406 0.117188 6.109375 0.046875 C 5.910156 -0.0234375 5.640625 -0.0703125 5.296875 -0.09375 L 3.484375 -0.1875 L 3.234375 -0.1875 C 2.222656 -0.164062 1.71875 0.226562 1.71875 1 C 1.71875 1.9375 2.53125 2.40625 4.15625 2.40625 Z M 4.15625 2.40625 "/></g></g><g transform="translate(527.142665, 269.179523)"><g><path d="M 1.40625 0 L 1.40625 -8.078125 L 2.546875 -8.078125 L 2.546875 -6.8125 L 2.703125 -6.78125 C 2.960938 -7.25 3.300781 -7.609375 3.71875 -7.859375 C 4.132812 -8.109375 4.644531 -8.234375 5.25 -8.234375 C 6.21875 -8.234375 6.921875 -7.984375 7.359375 -7.484375 C 7.796875 -6.992188 8.015625 -6.234375 8.015625 -5.203125 L 8.015625 0 L 6.828125 0 L 6.828125 -5.171875 C 6.828125 -5.660156 6.765625 -6.050781 6.640625 -6.34375 C 6.515625 -6.644531 6.320312 -6.859375 6.0625 -6.984375 C 5.800781 -7.117188 5.457031 -7.1875 5.03125 -7.1875 C 4.300781 -7.1875 3.710938 -6.945312 3.265625 -6.46875 C 2.816406 -5.988281 2.59375 -5.210938 2.59375 -4.140625 L 2.59375 0 Z M 1.40625 0 "/></g></g><g transform="translate(536.444423, 269.179523)"><g><path d="M 2 -9.640625 C 1.75 -9.640625 1.546875 -9.71875 1.390625 -9.875 C 1.234375 -10.03125 1.15625 -10.234375 1.15625 -10.484375 C 1.15625 -10.722656 1.234375 -10.921875 1.390625 -11.078125 C 1.546875 -11.242188 1.75 -11.328125 2 -11.328125 C 2.257812 -11.328125 2.46875 -11.242188 2.625 -11.078125 C 2.78125 -10.921875 2.859375 -10.722656 2.859375 -10.484375 C 2.859375 -10.234375 2.78125 -10.03125 2.625 -9.875 C 2.46875 -9.71875 2.257812 -9.640625 2 -9.640625 Z M 1.40625 0 L 1.40625 -8.078125 L 2.59375 -8.078125 L 2.59375 0 Z M 1.40625 0 "/></g></g><g transform="translate(540.45077, 269.179523)"><g><path d="M 1.796875 0 L 1.796875 -7.109375 L 0.390625 -7.109375 L 0.390625 -8.09375 L 1.796875 -8.09375 C 1.710938 -8.4375 1.671875 -8.769531 1.671875 -9.09375 C 1.671875 -9.613281 1.78125 -10.050781 2 -10.40625 C 2.226562 -10.769531 2.535156 -11.039062 2.921875 -11.21875 C 3.316406 -11.394531 3.773438 -11.484375 4.296875 -11.484375 C 5.109375 -11.484375 5.726562 -11.304688 6.15625 -10.953125 L 5.6875 -10.109375 L 5.53125 -10.078125 C 5.21875 -10.335938 4.804688 -10.46875 4.296875 -10.46875 C 3.828125 -10.46875 3.46875 -10.34375 3.21875 -10.09375 C 2.976562 -9.851562 2.859375 -9.507812 2.859375 -9.0625 C 2.859375 -8.78125 2.90625 -8.457031 3 -8.09375 L 5.5625 -8.09375 L 5.5625 -7.109375 L 3 -7.109375 L 3 0 Z M 1.796875 0 "/></g></g><g transform="translate(546.207605, 269.179523)"><g><path d="M 2 -9.640625 C 1.75 -9.640625 1.546875 -9.71875 1.390625 -9.875 C 1.234375 -10.03125 1.15625 -10.234375 1.15625 -10.484375 C 1.15625 -10.722656 1.234375 -10.921875 1.390625 -11.078125 C 1.546875 -11.242188 1.75 -11.328125 2 -11.328125 C 2.257812 -11.328125 2.46875 -11.242188 2.625 -11.078125 C 2.78125 -10.921875 2.859375 -10.722656 2.859375 -10.484375 C 2.859375 -10.234375 2.78125 -10.03125 2.625 -9.875 C 2.46875 -9.71875 2.257812 -9.640625 2 -9.640625 Z M 1.40625 0 L 1.40625 -8.078125 L 2.59375 -8.078125 L 2.59375 0 Z M 1.40625 0 "/></g></g><g transform="translate(550.213953, 269.179523)"><g><path d="M 4.640625 0.15625 C 3.921875 0.15625 3.28125 -0.00390625 2.71875 -0.328125 C 2.15625 -0.660156 1.707031 -1.140625 1.375 -1.765625 C 1.050781 -2.398438 0.890625 -3.15625 0.890625 -4.03125 C 0.890625 -4.914062 1.050781 -5.675781 1.375 -6.3125 C 1.707031 -6.945312 2.15625 -7.425781 2.71875 -7.75 C 3.28125 -8.070312 3.921875 -8.234375 4.640625 -8.234375 C 5.492188 -8.234375 6.171875 -8.070312 6.671875 -7.75 C 7.179688 -7.425781 7.546875 -6.992188 7.765625 -6.453125 L 6.953125 -5.875 L 6.8125 -5.875 C 6.59375 -6.320312 6.3125 -6.644531 5.96875 -6.84375 C 5.625 -7.050781 5.179688 -7.15625 4.640625 -7.15625 C 4.140625 -7.15625 3.703125 -7.035156 3.328125 -6.796875 C 2.953125 -6.566406 2.660156 -6.21875 2.453125 -5.75 C 2.242188 -5.28125 2.140625 -4.707031 2.140625 -4.03125 C 2.140625 -3.363281 2.242188 -2.796875 2.453125 -2.328125 C 2.660156 -1.859375 2.953125 -1.503906 3.328125 -1.265625 C 3.703125 -1.035156 4.140625 -0.921875 4.640625 -0.921875 C 5.203125 -0.921875 5.664062 -1.046875 6.03125 -1.296875 C 6.394531 -1.546875 6.6875 -1.945312 6.90625 -2.5 L 7.046875 -2.5 L 7.84375 -2.03125 C 7.625 -1.351562 7.242188 -0.816406 6.703125 -0.421875 C 6.171875 -0.0351562 5.484375 0.15625 4.640625 0.15625 Z M 4.640625 0.15625 "/></g></g><g transform="translate(558.541589, 269.179523)"><g><path d="M 7.703125 -3.765625 L 2.140625 -3.765625 C 2.179688 -2.785156 2.421875 -2.066406 2.859375 -1.609375 C 3.296875 -1.148438 3.894531 -0.921875 4.65625 -0.921875 C 5.226562 -0.921875 5.6875 -1.019531 6.03125 -1.21875 C 6.382812 -1.425781 6.664062 -1.75 6.875 -2.1875 L 7.03125 -2.1875 L 7.796875 -1.734375 C 7.566406 -1.140625 7.191406 -0.675781 6.671875 -0.34375 C 6.160156 -0.0078125 5.488281 0.15625 4.65625 0.15625 C 3.875 0.15625 3.203125 0.00390625 2.640625 -0.296875 C 2.078125 -0.609375 1.644531 -1.078125 1.34375 -1.703125 C 1.039062 -2.328125 0.890625 -3.101562 0.890625 -4.03125 C 0.890625 -4.945312 1.046875 -5.71875 1.359375 -6.34375 C 1.679688 -6.976562 2.117188 -7.453125 2.671875 -7.765625 C 3.234375 -8.078125 3.867188 -8.234375 4.578125 -8.234375 C 5.609375 -8.234375 6.414062 -7.941406 7 -7.359375 C 7.582031 -6.773438 7.875 -5.910156 7.875 -4.765625 C 7.875 -4.316406 7.867188 -4.015625 7.859375 -3.859375 Z M 6.703125 -4.765625 C 6.679688 -5.617188 6.488281 -6.238281 6.125 -6.625 C 5.769531 -7.019531 5.253906 -7.21875 4.578125 -7.21875 C 3.867188 -7.21875 3.3125 -7.019531 2.90625 -6.625 C 2.507812 -6.238281 2.265625 -5.617188 2.171875 -4.765625 Z M 6.703125 -4.765625 "/></g></g><g transform="translate(567.15487, 269.179523)"><g><path d="M 1.40625 0 L 1.40625 -8.078125 L 2.546875 -8.078125 L 2.546875 -6.8125 L 2.703125 -6.78125 C 2.960938 -7.25 3.300781 -7.609375 3.71875 -7.859375 C 4.132812 -8.109375 4.644531 -8.234375 5.25 -8.234375 C 6.21875 -8.234375 6.921875 -7.984375 7.359375 -7.484375 C 7.796875 -6.992188 8.015625 -6.234375 8.015625 -5.203125 L 8.015625 0 L 6.828125 0 L 6.828125 -5.171875 C 6.828125 -5.660156 6.765625 -6.050781 6.640625 -6.34375 C 6.515625 -6.644531 6.320312 -6.859375 6.0625 -6.984375 C 5.800781 -7.117188 5.457031 -7.1875 5.03125 -7.1875 C 4.300781 -7.1875 3.710938 -6.945312 3.265625 -6.46875 C 2.816406 -5.988281 2.59375 -5.210938 2.59375 -4.140625 L 2.59375 0 Z M 1.40625 0 "/></g></g></g><g fill="#ffffff" fill-opacity="1"><g transform="translate(576.398033, 269.179523)"><g><path d="M 5.46875 -1.28125 L 5.84375 -0.421875 C 5.65625 -0.234375 5.40625 -0.09375 5.09375 0 C 4.78125 0.101562 4.445312 0.15625 4.09375 0.15625 C 2.539062 0.15625 1.765625 -0.625 1.765625 -2.1875 L 1.765625 -7.109375 L 0.359375 -7.109375 L 0.359375 -8.09375 L 1.765625 -8.09375 L 1.765625 -9.796875 L 2.96875 -9.984375 L 2.96875 -8.09375 L 5.5625 -8.09375 L 5.5625 -7.109375 L 2.96875 -7.109375 L 2.96875 -2.3125 C 2.96875 -1.382812 3.367188 -0.921875 4.171875 -0.921875 C 4.609375 -0.921875 4.988281 -1.039062 5.3125 -1.28125 Z M 5.46875 -1.28125 "/></g></g><g transform="translate(582.550376, 269.179523)"><g/></g><g transform="translate(586.227134, 269.179523)"><g><path d="M 2.90625 0 L 1.6875 0 L 5.65625 -9.484375 L 5.625 -9.640625 L 0.390625 -9.640625 L 0.390625 -10.703125 L 6.921875 -10.703125 L 6.921875 -9.546875 Z M 2.90625 0 "/></g></g><g transform="translate(593.624594, 269.179523)"><g/></g><g transform="translate(597.301352, 269.179523)"><g><path d="M 2.875 -5.046875 L 2.875 -1.046875 L 8.328125 -1.046875 L 8.328125 0 L 1.625 0 L 1.625 -10.703125 L 8.21875 -10.703125 L 8.21875 -9.671875 L 2.875 -9.671875 L 2.875 -6.09375 L 7.59375 -6.09375 L 7.59375 -5.046875 Z M 2.875 -5.046875 "/></g></g><g transform="translate(606.346762, 269.179523)"><g><path d="M 8.359375 -10.703125 L 8.359375 -9.640625 L 5 -9.640625 L 5 0 L 3.75 0 L 3.75 -9.640625 L 0.390625 -9.640625 L 0.390625 -10.703125 Z M 8.359375 -10.703125 "/></g></g><g transform="translate(615.091878, 269.179523)"><g><path d="M 7.90625 -10.703125 L 7.90625 -9.671875 L 2.875 -9.671875 L 2.875 -5.765625 L 7.40625 -5.765625 L 7.40625 -4.71875 L 2.875 -4.71875 L 2.875 0 L 1.625 0 L 1.625 -10.703125 Z M 7.90625 -10.703125 "/></g></g><g transform="translate(623.580647, 269.179523)"><g/></g><g transform="translate(627.257405, 269.179523)"><g><path d="M 9.359375 -5.125 L 5.9375 -1.6875 L 5.25 -2.375 L 7.421875 -4.5625 L 7.359375 -4.6875 L 0.765625 -4.6875 L 0.765625 -5.703125 L 7.359375 -5.703125 L 7.421875 -5.84375 L 5.25 -8.03125 L 5.9375 -8.71875 L 9.359375 -5.28125 Z M 9.359375 -5.125 "/></g></g><g transform="translate(637.203693, 269.179523)"><g/></g><g transform="translate(640.880451, 269.179523)"><g><path d="M 8.359375 -10.703125 L 8.359375 -9.640625 L 5 -9.640625 L 5 0 L 3.75 0 L 3.75 -9.640625 L 0.390625 -9.640625 L 0.390625 -10.703125 Z M 8.359375 -10.703125 "/></g></g></g><g fill="#ffffff" fill-opacity="1"><g transform="translate(648.585528, 269.179523)"><g><path d="M 4.640625 0.15625 C 3.878906 0.15625 3.210938 -0.00390625 2.640625 -0.328125 C 2.078125 -0.648438 1.644531 -1.125 1.34375 -1.75 C 1.039062 -2.382812 0.890625 -3.144531 0.890625 -4.03125 C 0.890625 -4.925781 1.039062 -5.6875 1.34375 -6.3125 C 1.644531 -6.945312 2.078125 -7.425781 2.640625 -7.75 C 3.210938 -8.070312 3.878906 -8.234375 4.640625 -8.234375 C 5.398438 -8.234375 6.0625 -8.070312 6.625 -7.75 C 7.1875 -7.425781 7.617188 -6.945312 7.921875 -6.3125 C 8.234375 -5.6875 8.390625 -4.925781 8.390625 -4.03125 C 8.390625 -3.144531 8.234375 -2.382812 7.921875 -1.75 C 7.617188 -1.125 7.1875 -0.648438 6.625 -0.328125 C 6.0625 -0.00390625 5.398438 0.15625 4.640625 0.15625 Z M 4.640625 -0.921875 C 5.441406 -0.921875 6.054688 -1.171875 6.484375 -1.671875 C 6.910156 -2.179688 7.125 -2.96875 7.125 -4.03125 C 7.125 -5.101562 6.910156 -5.890625 6.484375 -6.390625 C 6.054688 -6.898438 5.441406 -7.15625 4.640625 -7.15625 C 3.828125 -7.15625 3.207031 -6.898438 2.78125 -6.390625 C 2.351562 -5.878906 2.140625 -5.09375 2.140625 -4.03125 C 2.140625 -2.96875 2.351562 -2.179688 2.78125 -1.671875 C 3.207031 -1.171875 3.828125 -0.921875 4.640625 -0.921875 Z M 4.640625 -0.921875 "/></g></g><g transform="translate(657.857989, 269.179523)"><g><path d="M 1.40625 3.28125 L 1.40625 -8.078125 L 2.59375 -8.078125 L 2.59375 -6.875 L 2.75 -6.84375 C 3.351562 -7.769531 4.234375 -8.234375 5.390625 -8.234375 C 6.066406 -8.234375 6.65625 -8.078125 7.15625 -7.765625 C 7.664062 -7.460938 8.054688 -6.992188 8.328125 -6.359375 C 8.609375 -5.734375 8.75 -4.957031 8.75 -4.03125 C 8.75 -3.113281 8.601562 -2.34375 8.3125 -1.71875 C 8.019531 -1.09375 7.613281 -0.625 7.09375 -0.3125 C 6.582031 0 5.988281 0.15625 5.3125 0.15625 C 4.757812 0.15625 4.269531 0.0625 3.84375 -0.125 C 3.425781 -0.320312 3.0625 -0.632812 2.75 -1.0625 L 2.59375 -1.046875 L 2.59375 3.28125 Z M 5.046875 -0.921875 C 6.679688 -0.921875 7.5 -1.957031 7.5 -4.03125 C 7.5 -6.113281 6.679688 -7.15625 5.046875 -7.15625 C 4.566406 -7.15625 4.144531 -7.046875 3.78125 -6.828125 C 3.414062 -6.609375 3.125 -6.265625 2.90625 -5.796875 C 2.695312 -5.335938 2.59375 -4.75 2.59375 -4.03125 C 2.59375 -3.320312 2.695312 -2.734375 2.90625 -2.265625 C 3.125 -1.804688 3.414062 -1.46875 3.78125 -1.25 C 4.144531 -1.03125 4.566406 -0.921875 5.046875 -0.921875 Z M 5.046875 -0.921875 "/></g></g><g transform="translate(667.49666, 269.179523)"><g/></g><g transform="translate(671.173418, 269.179523)"><g><path d="M 2.90625 0 L 1.6875 0 L 5.65625 -9.484375 L 5.625 -9.640625 L 0.390625 -9.640625 L 0.390625 -10.703125 L 6.921875 -10.703125 L 6.921875 -9.546875 Z M 2.90625 0 "/></g></g><g transform="translate(678.570878, 269.179523)"><g/></g><g transform="translate(682.247636, 269.179523)"><g><path d="M 5.515625 0.15625 C 4.203125 0.15625 3.207031 -0.175781 2.53125 -0.84375 C 1.863281 -1.507812 1.53125 -2.5 1.53125 -3.8125 L 1.53125 -10.703125 L 2.78125 -10.703125 L 2.78125 -3.828125 C 2.78125 -2.890625 3.003906 -2.1875 3.453125 -1.71875 C 3.910156 -1.25 4.597656 -1.015625 5.515625 -1.015625 C 7.347656 -1.015625 8.265625 -1.953125 8.265625 -3.828125 L 8.265625 -10.703125 L 9.515625 -10.703125 L 9.515625 -3.8125 C 9.515625 -2.5 9.175781 -1.507812 8.5 -0.84375 C 7.832031 -0.175781 6.835938 0.15625 5.515625 0.15625 Z M 5.515625 0.15625 "/></g></g><g transform="translate(693.285232, 269.179523)"><g><path d="M 4.6875 0.15625 C 4.007812 0.15625 3.398438 0.0664062 2.859375 -0.109375 C 2.328125 -0.296875 1.882812 -0.539062 1.53125 -0.84375 C 1.175781 -1.144531 0.910156 -1.472656 0.734375 -1.828125 L 1.421875 -2.65625 L 1.609375 -2.65625 C 2.265625 -1.539062 3.289062 -0.984375 4.6875 -0.984375 C 5.488281 -0.984375 6.082031 -1.148438 6.46875 -1.484375 C 6.863281 -1.828125 7.0625 -2.296875 7.0625 -2.890625 C 7.0625 -3.242188 7 -3.539062 6.875 -3.78125 C 6.75 -4.03125 6.535156 -4.238281 6.234375 -4.40625 C 5.929688 -4.582031 5.523438 -4.734375 5.015625 -4.859375 L 3.765625 -5.171875 C 2.828125 -5.398438 2.140625 -5.757812 1.703125 -6.25 C 1.265625 -6.738281 1.046875 -7.359375 1.046875 -8.109375 C 1.046875 -8.640625 1.179688 -9.113281 1.453125 -9.53125 C 1.722656 -9.945312 2.117188 -10.269531 2.640625 -10.5 C 3.171875 -10.738281 3.804688 -10.859375 4.546875 -10.859375 C 5.347656 -10.859375 6.023438 -10.742188 6.578125 -10.515625 C 7.128906 -10.296875 7.570312 -9.957031 7.90625 -9.5 L 7.296875 -8.671875 L 7.109375 -8.671875 C 6.804688 -9.046875 6.441406 -9.320312 6.015625 -9.5 C 5.597656 -9.675781 5.109375 -9.765625 4.546875 -9.765625 C 3.796875 -9.765625 3.234375 -9.617188 2.859375 -9.328125 C 2.484375 -9.046875 2.296875 -8.648438 2.296875 -8.140625 C 2.296875 -7.648438 2.429688 -7.265625 2.703125 -6.984375 C 2.984375 -6.703125 3.453125 -6.484375 4.109375 -6.328125 L 5.390625 -6.015625 C 6.429688 -5.765625 7.1875 -5.382812 7.65625 -4.875 C 8.125 -4.375 8.359375 -3.734375 8.359375 -2.953125 C 8.359375 -2.347656 8.222656 -1.8125 7.953125 -1.34375 C 7.679688 -0.875 7.269531 -0.503906 6.71875 -0.234375 C 6.164062 0.0234375 5.488281 0.15625 4.6875 0.15625 Z M 4.6875 0.15625 "/></g></g><g transform="translate(702.462478, 269.179523)"><g/></g><g transform="translate(706.139236, 269.179523)"><g><path d="M 8.359375 -10.703125 L 8.359375 -9.640625 L 5 -9.640625 L 5 0 L 3.75 0 L 3.75 -9.640625 L 0.390625 -9.640625 L 0.390625 -10.703125 Z M 8.359375 -10.703125 "/></g></g></g><g fill="#ffffff" fill-opacity="1"><g transform="translate(713.844313, 269.179523)"><g><path d="M 7.703125 -3.765625 L 2.140625 -3.765625 C 2.179688 -2.785156 2.421875 -2.066406 2.859375 -1.609375 C 3.296875 -1.148438 3.894531 -0.921875 4.65625 -0.921875 C 5.226562 -0.921875 5.6875 -1.019531 6.03125 -1.21875 C 6.382812 -1.425781 6.664062 -1.75 6.875 -2.1875 L 7.03125 -2.1875 L 7.796875 -1.734375 C 7.566406 -1.140625 7.191406 -0.675781 6.671875 -0.34375 C 6.160156 -0.0078125 5.488281 0.15625 4.65625 0.15625 C 3.875 0.15625 3.203125 0.00390625 2.640625 -0.296875 C 2.078125 -0.609375 1.644531 -1.078125 1.34375 -1.703125 C 1.039062 -2.328125 0.890625 -3.101562 0.890625 -4.03125 C 0.890625 -4.945312 1.046875 -5.71875 1.359375 -6.34375 C 1.679688 -6.976562 2.117188 -7.453125 2.671875 -7.765625 C 3.234375 -8.078125 3.867188 -8.234375 4.578125 -8.234375 C 5.609375 -8.234375 6.414062 -7.941406 7 -7.359375 C 7.582031 -6.773438 7.875 -5.910156 7.875 -4.765625 C 7.875 -4.316406 7.867188 -4.015625 7.859375 -3.859375 Z M 6.703125 -4.765625 C 6.679688 -5.617188 6.488281 -6.238281 6.125 -6.625 C 5.769531 -7.019531 5.253906 -7.21875 4.578125 -7.21875 C 3.867188 -7.21875 3.3125 -7.019531 2.90625 -6.625 C 2.507812 -6.238281 2.265625 -5.617188 2.171875 -4.765625 Z M 6.703125 -4.765625 "/></g></g><g transform="translate(722.457594, 269.179523)"><g><path d="M 4.640625 0.15625 C 3.921875 0.15625 3.28125 -0.00390625 2.71875 -0.328125 C 2.15625 -0.660156 1.707031 -1.140625 1.375 -1.765625 C 1.050781 -2.398438 0.890625 -3.15625 0.890625 -4.03125 C 0.890625 -4.914062 1.050781 -5.675781 1.375 -6.3125 C 1.707031 -6.945312 2.15625 -7.425781 2.71875 -7.75 C 3.28125 -8.070312 3.921875 -8.234375 4.640625 -8.234375 C 5.492188 -8.234375 6.171875 -8.070312 6.671875 -7.75 C 7.179688 -7.425781 7.546875 -6.992188 7.765625 -6.453125 L 6.953125 -5.875 L 6.8125 -5.875 C 6.59375 -6.320312 6.3125 -6.644531 5.96875 -6.84375 C 5.625 -7.050781 5.179688 -7.15625 4.640625 -7.15625 C 4.140625 -7.15625 3.703125 -7.035156 3.328125 -6.796875 C 2.953125 -6.566406 2.660156 -6.21875 2.453125 -5.75 C 2.242188 -5.28125 2.140625 -4.707031 2.140625 -4.03125 C 2.140625 -3.363281 2.242188 -2.796875 2.453125 -2.328125 C 2.660156 -1.859375 2.953125 -1.503906 3.328125 -1.265625 C 3.703125 -1.035156 4.140625 -0.921875 4.640625 -0.921875 C 5.203125 -0.921875 5.664062 -1.046875 6.03125 -1.296875 C 6.394531 -1.546875 6.6875 -1.945312 6.90625 -2.5 L 7.046875 -2.5 L 7.84375 -2.03125 C 7.625 -1.351562 7.242188 -0.816406 6.703125 -0.421875 C 6.171875 -0.0351562 5.484375 0.15625 4.640625 0.15625 Z M 4.640625 0.15625 "/></g></g><g transform="translate(730.78523, 269.179523)"><g><path d="M 1.40625 0 L 1.40625 -11.328125 L 2.59375 -11.328125 L 2.59375 -6.921875 L 2.75 -6.90625 C 3.332031 -7.789062 4.164062 -8.234375 5.25 -8.234375 C 6.21875 -8.234375 6.921875 -7.984375 7.359375 -7.484375 C 7.796875 -6.992188 8.015625 -6.234375 8.015625 -5.203125 L 8.015625 0 L 6.828125 0 L 6.828125 -5.171875 C 6.828125 -5.660156 6.765625 -6.050781 6.640625 -6.34375 C 6.515625 -6.644531 6.320312 -6.859375 6.0625 -6.984375 C 5.800781 -7.117188 5.457031 -7.1875 5.03125 -7.1875 C 4.300781 -7.1875 3.710938 -6.945312 3.265625 -6.46875 C 2.816406 -6 2.59375 -5.222656 2.59375 -4.140625 L 2.59375 0 Z M 1.40625 0 "/></g></g><g transform="translate(740.086987, 269.179523)"><g/></g><g transform="translate(743.763745, 269.179523)"><g><path d="M 4.6875 0.15625 C 4.007812 0.15625 3.398438 0.0664062 2.859375 -0.109375 C 2.328125 -0.296875 1.882812 -0.539062 1.53125 -0.84375 C 1.175781 -1.144531 0.910156 -1.472656 0.734375 -1.828125 L 1.421875 -2.65625 L 1.609375 -2.65625 C 2.265625 -1.539062 3.289062 -0.984375 4.6875 -0.984375 C 5.488281 -0.984375 6.082031 -1.148438 6.46875 -1.484375 C 6.863281 -1.828125 7.0625 -2.296875 7.0625 -2.890625 C 7.0625 -3.242188 7 -3.539062 6.875 -3.78125 C 6.75 -4.03125 6.535156 -4.238281 6.234375 -4.40625 C 5.929688 -4.582031 5.523438 -4.734375 5.015625 -4.859375 L 3.765625 -5.171875 C 2.828125 -5.398438 2.140625 -5.757812 1.703125 -6.25 C 1.265625 -6.738281 1.046875 -7.359375 1.046875 -8.109375 C 1.046875 -8.640625 1.179688 -9.113281 1.453125 -9.53125 C 1.722656 -9.945312 2.117188 -10.269531 2.640625 -10.5 C 3.171875 -10.738281 3.804688 -10.859375 4.546875 -10.859375 C 5.347656 -10.859375 6.023438 -10.742188 6.578125 -10.515625 C 7.128906 -10.296875 7.570312 -9.957031 7.90625 -9.5 L 7.296875 -8.671875 L 7.109375 -8.671875 C 6.804688 -9.046875 6.441406 -9.320312 6.015625 -9.5 C 5.597656 -9.675781 5.109375 -9.765625 4.546875 -9.765625 C 3.796875 -9.765625 3.234375 -9.617188 2.859375 -9.328125 C 2.484375 -9.046875 2.296875 -8.648438 2.296875 -8.140625 C 2.296875 -7.648438 2.429688 -7.265625 2.703125 -6.984375 C 2.984375 -6.703125 3.453125 -6.484375 4.109375 -6.328125 L 5.390625 -6.015625 C 6.429688 -5.765625 7.1875 -5.382812 7.65625 -4.875 C 8.125 -4.375 8.359375 -3.734375 8.359375 -2.953125 C 8.359375 -2.347656 8.222656 -1.8125 7.953125 -1.34375 C 7.679688 -0.875 7.269531 -0.503906 6.71875 -0.234375 C 6.164062 0.0234375 5.488281 0.15625 4.6875 0.15625 Z M 4.6875 0.15625 "/></g></g><g transform="translate(752.940991, 269.179523)"><g><path d="M 5.46875 -1.28125 L 5.84375 -0.421875 C 5.65625 -0.234375 5.40625 -0.09375 5.09375 0 C 4.78125 0.101562 4.445312 0.15625 4.09375 0.15625 C 2.539062 0.15625 1.765625 -0.625 1.765625 -2.1875 L 1.765625 -7.109375 L 0.359375 -7.109375 L 0.359375 -8.09375 L 1.765625 -8.09375 L 1.765625 -9.796875 L 2.96875 -9.984375 L 2.96875 -8.09375 L 5.5625 -8.09375 L 5.5625 -7.109375 L 2.96875 -7.109375 L 2.96875 -2.3125 C 2.96875 -1.382812 3.367188 -0.921875 4.171875 -0.921875 C 4.609375 -0.921875 4.988281 -1.039062 5.3125 -1.28125 Z M 5.46875 -1.28125 "/></g></g></g><g fill="#ffffff" fill-opacity="1"><g transform="translate(758.998119, 269.179523)"><g><path d="M 4.640625 0.15625 C 3.878906 0.15625 3.210938 -0.00390625 2.640625 -0.328125 C 2.078125 -0.648438 1.644531 -1.125 1.34375 -1.75 C 1.039062 -2.382812 0.890625 -3.144531 0.890625 -4.03125 C 0.890625 -4.925781 1.039062 -5.6875 1.34375 -6.3125 C 1.644531 -6.945312 2.078125 -7.425781 2.640625 -7.75 C 3.210938 -8.070312 3.878906 -8.234375 4.640625 -8.234375 C 5.398438 -8.234375 6.0625 -8.070312 6.625 -7.75 C 7.1875 -7.425781 7.617188 -6.945312 7.921875 -6.3125 C 8.234375 -5.6875 8.390625 -4.925781 8.390625 -4.03125 C 8.390625 -3.144531 8.234375 -2.382812 7.921875 -1.75 C 7.617188 -1.125 7.1875 -0.648438 6.625 -0.328125 C 6.0625 -0.00390625 5.398438 0.15625 4.640625 0.15625 Z M 4.640625 -0.921875 C 5.441406 -0.921875 6.054688 -1.171875 6.484375 -1.671875 C 6.910156 -2.179688 7.125 -2.96875 7.125 -4.03125 C 7.125 -5.101562 6.910156 -5.890625 6.484375 -6.390625 C 6.054688 -6.898438 5.441406 -7.15625 4.640625 -7.15625 C 3.828125 -7.15625 3.207031 -6.898438 2.78125 -6.390625 C 2.351562 -5.878906 2.140625 -5.09375 2.140625 -4.03125 C 2.140625 -2.96875 2.351562 -2.179688 2.78125 -1.671875 C 3.207031 -1.171875 3.828125 -0.921875 4.640625 -0.921875 Z M 4.640625 -0.921875 "/></g></g><g transform="translate(768.270579, 269.179523)"><g><path d="M 4.640625 0.15625 C 3.921875 0.15625 3.28125 -0.00390625 2.71875 -0.328125 C 2.15625 -0.660156 1.707031 -1.140625 1.375 -1.765625 C 1.050781 -2.398438 0.890625 -3.15625 0.890625 -4.03125 C 0.890625 -4.914062 1.050781 -5.675781 1.375 -6.3125 C 1.707031 -6.945312 2.15625 -7.425781 2.71875 -7.75 C 3.28125 -8.070312 3.921875 -8.234375 4.640625 -8.234375 C 5.492188 -8.234375 6.171875 -8.070312 6.671875 -7.75 C 7.179688 -7.425781 7.546875 -6.992188 7.765625 -6.453125 L 6.953125 -5.875 L 6.8125 -5.875 C 6.59375 -6.320312 6.3125 -6.644531 5.96875 -6.84375 C 5.625 -7.050781 5.179688 -7.15625 4.640625 -7.15625 C 4.140625 -7.15625 3.703125 -7.035156 3.328125 -6.796875 C 2.953125 -6.566406 2.660156 -6.21875 2.453125 -5.75 C 2.242188 -5.28125 2.140625 -4.707031 2.140625 -4.03125 C 2.140625 -3.363281 2.242188 -2.796875 2.453125 -2.328125 C 2.660156 -1.859375 2.953125 -1.503906 3.328125 -1.265625 C 3.703125 -1.035156 4.140625 -0.921875 4.640625 -0.921875 C 5.203125 -0.921875 5.664062 -1.046875 6.03125 -1.296875 C 6.394531 -1.546875 6.6875 -1.945312 6.90625 -2.5 L 7.046875 -2.5 L 7.84375 -2.03125 C 7.625 -1.351562 7.242188 -0.816406 6.703125 -0.421875 C 6.171875 -0.0351562 5.484375 0.15625 4.640625 0.15625 Z M 4.640625 0.15625 "/></g></g><g transform="translate(776.598215, 269.179523)"><g><path d="M 1.40625 0 L 1.40625 -11.328125 L 2.59375 -11.328125 L 2.59375 -4.703125 L 2.796875 -4.703125 L 5.796875 -8.078125 L 7.046875 -8.078125 L 7.046875 -7.90625 L 3.859375 -4.28125 L 7.359375 -0.1875 L 7.359375 0 L 6.03125 0 L 2.796875 -3.734375 L 2.59375 -3.734375 L 2.59375 0 Z M 1.40625 0 "/></g></g><g transform="translate(784.112863, 269.179523)"><g><path d="M 3.6875 0.15625 C 3.175781 0.15625 2.703125 0.0859375 2.265625 -0.046875 C 1.835938 -0.179688 1.472656 -0.363281 1.171875 -0.59375 C 0.878906 -0.832031 0.671875 -1.097656 0.546875 -1.390625 L 1.25 -2.125 L 1.40625 -2.125 C 1.664062 -1.726562 1.984375 -1.425781 2.359375 -1.21875 C 2.734375 -1.019531 3.175781 -0.921875 3.6875 -0.921875 C 4.28125 -0.921875 4.734375 -1.035156 5.046875 -1.265625 C 5.359375 -1.492188 5.515625 -1.816406 5.515625 -2.234375 C 5.515625 -2.546875 5.414062 -2.804688 5.21875 -3.015625 C 5.03125 -3.222656 4.726562 -3.378906 4.3125 -3.484375 L 2.953125 -3.828125 C 2.222656 -4.003906 1.691406 -4.28125 1.359375 -4.65625 C 1.023438 -5.039062 0.859375 -5.515625 0.859375 -6.078125 C 0.859375 -6.515625 0.96875 -6.894531 1.1875 -7.21875 C 1.414062 -7.539062 1.738281 -7.789062 2.15625 -7.96875 C 2.582031 -8.144531 3.085938 -8.234375 3.671875 -8.234375 C 4.410156 -8.234375 4.992188 -8.128906 5.421875 -7.921875 C 5.847656 -7.710938 6.179688 -7.421875 6.421875 -7.046875 L 5.75 -6.390625 L 5.609375 -6.390625 C 5.347656 -6.691406 5.0625 -6.90625 4.75 -7.03125 C 4.445312 -7.164062 4.085938 -7.234375 3.671875 -7.234375 C 3.140625 -7.234375 2.726562 -7.140625 2.4375 -6.953125 C 2.15625 -6.765625 2.015625 -6.488281 2.015625 -6.125 C 2.015625 -5.789062 2.113281 -5.523438 2.3125 -5.328125 C 2.519531 -5.128906 2.875 -4.96875 3.375 -4.84375 L 4.703125 -4.53125 C 5.410156 -4.363281 5.921875 -4.085938 6.234375 -3.703125 C 6.546875 -3.316406 6.703125 -2.832031 6.703125 -2.25 C 6.703125 -1.769531 6.585938 -1.347656 6.359375 -0.984375 C 6.140625 -0.628906 5.800781 -0.347656 5.34375 -0.140625 C 4.894531 0.0546875 4.34375 0.15625 3.6875 0.15625 Z M 3.6875 0.15625 "/></g></g></g><g fill="#ffffff" fill-opacity="1"><g transform="translate(791.593819, 269.179523)"><g/></g></g></svg>